<svg width="73" height="73" viewBox="0 0 73 73" fill="none" xmlns="http://www.w3.org/2000/svg">
<circle cx="36.5" cy="36.5" r="36.5" fill="url(#paint0_radial)"/>
<path d="M44.315 29.9183L37.745 19.657C37.46 19.219 36.98 19 36.5 19C36.02 19 35.54 19.219 35.255 19.6726L28.685 29.9183H21.5C20.675 29.9183 20 30.6222 20 31.4825C20 31.6233 20.015 31.7641 20.06 31.9048L23.87 46.4052C24.215 47.7191 25.37 48.689 26.75 48.689H46.25C47.63 48.689 48.785 47.7191 49.145 46.4052L52.955 31.9048L53 31.4825C53 30.6222 52.325 29.9183 51.5 29.9183H44.315ZM32 29.9183L36.5 23.0357L41 29.9183H32ZM36.5 42.4321C34.85 42.4321 33.5 41.0243 33.5 39.3036C33.5 37.583 34.85 36.1752 36.5 36.1752C38.15 36.1752 39.5 37.583 39.5 39.3036C39.5 41.0243 38.15 42.4321 36.5 42.4321Z" fill="#2D2D2D"/>
<defs>
<radialGradient id="paint0_radial" cx="0" cy="0" r="1" gradientUnits="userSpaceOnUse" gradientTransform="translate(36.5 36.5) rotate(90) scale(36.5)">
<stop stop-color="#E4E4E4"/>
<stop offset="1" stop-color="#C4C4C4"/>
</radialGradient>
</defs>
</svg>
