<svg width="20" height="20" viewBox="0 0 20 20" fill="none" xmlns="http://www.w3.org/2000/svg">
<path d="M15.8331 9.1665H4.16642C3.24595 9.1665 2.49976 9.9127 2.49976 10.8332V16.6665C2.49976 17.587 3.24595 18.3332 4.16642 18.3332H15.8331C16.7536 18.3332 17.4998 17.587 17.4998 16.6665V10.8332C17.4998 9.9127 16.7536 9.1665 15.8331 9.1665Z" stroke="#ACB3B9" stroke-width="2" stroke-linecap="round" stroke-linejoin="round"/>
<path d="M5.83313 9.1665V5.83317C5.83313 4.7281 6.27212 3.66829 7.05352 2.88689C7.83492 2.10549 8.89473 1.6665 9.9998 1.6665C11.1049 1.6665 12.1647 2.10549 12.9461 2.88689C13.7275 3.66829 14.1665 4.7281 14.1665 5.83317V9.1665" stroke="#ACB3B9" stroke-width="2" stroke-linecap="round" stroke-linejoin="round"/>
</svg>
