<svg xmlns="http://www.w3.org/2000/svg" width="48.281" height="37.156" viewBox="0 0 48.281 37.156">
  <defs>
    <style>
      .cls-1 {
        fill: #d5ad79;
        fill-rule: evenodd;
      }
    </style>
  </defs>
  <path id="_3.svg" data-name="3.svg" class="cls-1" d="M552,447s-6.615-6.451-5-15c-0.432.606,0.762-1.529,1-1S556.524,438.652,552,447Zm2-1a11.667,11.667,0,0,1,5-7c0.332-.039,1.722-0.27,1,2s-4.323,6.122-5,6A1.634,1.634,0,0,1,554,446Zm14,1h6l6-8s1.71-3.276,0-4c-0.1-.186-2.016-1.1-4,1C575.918,436.115,568,447,568,447Zm-19,2h26l-4,2H548Zm1,3h14s-1.618,5.139,6,8c-0.152.514,0.828,7.312-3,8,0.056-.041-7.548.942-12-4C555,464.277,549.8,460.416,550,452Zm26-2s0.96-5.959,4-8c0.248,0.184,3.284,2.2,3,9-0.041-.036-2,3-2,3Zm6,5,3-3s8.122,0,10,1c-0.307.069-4.589,4.711-7,5C588.421,458.086,582,455,582,455Zm0,2s6.625-.226,8,10c-0.041.029-1,1-1,1h-1s-7.138-4.11-7-6C580.733,462.577,582,457,582,457Zm-2,1-1,5s-4.565,5.04-7,5c-0.25-.162-1.6-3.821,1-8C573.045,460.109,578.3,460.306,580,458Zm-4-6,4,4-7,3s-6.357-3.422-7-5C566.045,454.282,568.716,452.162,576,452Z" transform="translate(-546.719 -430.906)"/>
</svg>
