<svg width="39" height="39" viewBox="0 0 39 39" fill="none" xmlns="http://www.w3.org/2000/svg">
<g clip-path="url(#clip0)">
<path d="M19.499 39C30.2686 39 38.999 30.2696 38.999 19.5C38.999 8.73045 30.2686 0 19.499 0C8.72947 0 -0.000976562 8.73045 -0.000976562 19.5C-0.000976562 30.2696 8.72947 39 19.499 39Z" fill="white"/>
<path d="M28.4433 10.7446C26.2568 8.55741 23.3502 7.35255 20.2546 7.35156C13.8753 7.35156 8.68329 12.5416 8.68006 18.9211C8.68006 20.9615 9.21316 22.9505 10.2243 24.7043L8.58307 30.7008L14.7182 29.0909C16.4096 30.0137 18.3122 30.5001 20.2511 30.5001H20.2546C26.6324 30.5001 31.8259 25.3101 31.8291 18.9298C31.8294 15.8377 30.628 12.9311 28.4433 10.7446ZM20.2546 28.5471H20.2511C18.5251 28.5454 16.832 28.0815 15.3553 27.2056L15.002 26.9959L11.3631 27.9517L12.3343 24.4027L12.1041 24.0392C11.1416 22.5087 10.6326 20.7377 10.6343 18.9209C10.6361 13.6185 14.9519 9.30409 20.2578 9.30409C22.8268 9.30583 25.2437 10.3073 27.0598 12.1251C28.8756 13.9429 29.8763 16.3586 29.8746 18.9286C29.8731 24.2332 25.5573 28.5471 20.2546 28.5471ZM25.5315 21.3437C25.2422 21.2001 23.8208 20.5008 23.5561 20.4038C23.2914 20.3068 23.0972 20.2582 22.9052 20.5475C22.7132 20.8364 22.159 21.4874 21.9896 21.6814C21.8196 21.8751 21.6519 21.8994 21.363 21.754C21.0737 21.6084 20.1407 21.3041 19.0361 20.319C18.1775 19.552 17.5958 18.6051 17.4296 18.3158C17.2599 18.0259 17.4105 17.8701 17.5541 17.7254C17.6859 17.5965 17.8449 17.3878 17.9888 17.2191C18.1324 17.0502 18.1808 16.9299 18.278 16.7369C18.375 16.5439 18.3264 16.3752 18.2537 16.2306C18.181 16.0852 17.6028 14.6621 17.3621 14.0838C17.1285 13.5195 16.8896 13.5956 16.7112 13.587C16.5433 13.5793 16.3495 13.5775 16.1573 13.5775C15.9653 13.5775 15.6502 13.6495 15.387 13.9392C15.1204 14.2285 14.3742 14.9278 14.3742 16.3507C14.3742 17.7736 15.4111 19.1481 15.555 19.3414C15.6986 19.5343 17.5943 22.4531 20.494 23.7066C21.1848 24.0043 21.7231 24.1826 22.1439 24.3158C22.8362 24.5359 23.468 24.5046 23.9669 24.4302C24.5206 24.3471 25.6773 23.7309 25.9177 23.0557C26.1586 22.3804 26.1586 21.8022 26.0856 21.6811C26.0125 21.5601 25.8222 21.4874 25.5315 21.3437Z" fill="#2D2D2D"/>
</g>
<defs>
<clipPath id="clip0">
<rect width="39" height="39" fill="white"/>
</clipPath>
</defs>
</svg>
