<svg width="45" height="45" viewBox="0 0 45 45" fill="none" xmlns="http://www.w3.org/2000/svg">
<g clip-path="url(#clip0)">
<path d="M22.3976 44.2047C34.5685 44.2047 44.4349 34.3383 44.4349 22.1674C44.4349 9.99656 34.5685 0.130127 22.3976 0.130127C10.2267 0.130127 0.360291 9.99656 0.360291 22.1674C0.360291 34.3383 10.2267 44.2047 22.3976 44.2047Z" fill="#FF9900"/>
<path d="M32.5055 12.2726C30.0346 9.8008 26.7498 8.43917 23.2514 8.43805C16.042 8.43805 10.1744 14.3034 10.1708 21.513C10.1708 23.8189 10.7732 26.0667 11.9159 28.0487L10.0612 34.8255L16.9946 33.006C18.906 34.0489 21.0563 34.5987 23.2474 34.5987H23.2514C30.459 34.5987 36.3283 28.7333 36.3319 21.5228C36.3322 18.0283 34.9745 14.7436 32.5055 12.2726ZM23.2514 32.3915H23.2474C21.2968 32.3895 19.3834 31.8653 17.7146 30.8754L17.3153 30.6385L13.203 31.7187L14.3005 27.7078L14.0404 27.2971C12.9526 25.5674 12.3774 23.566 12.3793 21.5127C12.3813 15.5204 17.2587 10.6446 23.255 10.6446C26.1582 10.6466 28.8896 11.7784 30.942 13.8327C32.9942 15.8871 34.1251 18.6171 34.1231 21.5214C34.1214 27.5163 29.244 32.3915 23.2514 32.3915ZM29.2148 24.2509C28.888 24.0885 27.2816 23.2983 26.9825 23.1886C26.6833 23.079 26.4638 23.0241 26.2468 23.351C26.0298 23.6776 25.4036 24.4132 25.2121 24.6324C25.02 24.8514 24.8305 24.8788 24.5039 24.7146C24.1771 24.55 23.1227 24.206 21.8743 23.0928C20.904 22.2259 20.2466 21.1559 20.0588 20.829C19.867 20.5013 20.0372 20.3252 20.1995 20.1618C20.3484 20.016 20.5281 19.7802 20.6907 19.5896C20.853 19.3987 20.9077 19.2627 21.0176 19.0446C21.1272 18.8265 21.0722 18.6359 20.9901 18.4724C20.908 18.3081 20.2545 16.6998 19.9825 16.0463C19.7185 15.4085 19.4485 15.4946 19.2469 15.4848C19.0571 15.4761 18.8382 15.4741 18.6209 15.4741C18.4039 15.4741 18.0479 15.5554 17.7504 15.8829C17.4491 16.2098 16.6058 17 16.6058 18.6081C16.6058 20.2162 17.7776 21.7695 17.9402 21.9879C18.1026 22.206 20.2449 25.5046 23.5219 26.9211C24.3026 27.2576 24.911 27.4591 25.3865 27.6097C26.1689 27.8583 26.8829 27.823 27.4467 27.7389C28.0724 27.645 29.3797 26.9486 29.6513 26.1855C29.9235 25.4224 29.9235 24.7689 29.8411 24.6321C29.7584 24.4953 29.5434 24.4132 29.2148 24.2509Z" fill="white"/>
</g>
<defs>
<clipPath id="clip0">
<rect width="44.0746" height="44.0746" fill="white" transform="translate(0.361267 0.130127)"/>
</clipPath>
</defs>
</svg>
