<svg xmlns="http://www.w3.org/2000/svg" width="46.625" height="40" viewBox="0 0 46.625 40">
  <defs>
    <style>
      .cls-1 {
        fill: #d5ad79;
        fill-rule: evenodd;
      }
    </style>
  </defs>
  <path id="_1.svg" data-name="1.svg" class="cls-1" d="M572,252l2-3,21,1-4,4Zm-6-4a21.9,21.9,0,0,1-2,3s-12.3,1.033-15-2c0.1-.267-2.424-4.947,2-7,0.046-.047,4.742-0.939,7,2-0.114.111,1.621,2.385,2,4a15.164,15.164,0,0,0-2,0s-1.86-4.994-5-4a2.831,2.831,0,0,0-3,3c0.2,0.152.787,3.149,8,2a1.554,1.554,0,0,0,0-1h2S565.966,247.692,566,248Zm-1,9,1-5,13-22h5l-16,26v2s3.022,3.067,0,8a6.2,6.2,0,0,1-6,4c-0.019-.025-3.774-0.482-3-4,0.108-.1,2.981-5.655,5-8,0.27-.014,1,0,1,0v1s-5.439,7.233-4,9c0.148,0.144,2.357,1.6,4,0,0.1,0.019,2.941-3.319,3-6,0.058,0.024.437-2.944-2-3a3.319,3.319,0,0,0-1,0l-1-1Z" transform="translate(-548.375 -230)"/>
</svg>
