<svg xmlns="http://www.w3.org/2000/svg" width="38.312" height="40.218" viewBox="0 0 38.312 40.218">
  <defs>
    <style>
      .cls-1 {
        fill-rule: evenodd;
      }
    </style>
  </defs>
  <path id="_44.svg" data-name="44.svg" class="cls-1" d="M388,551l8,13s5.473,6.37,10,6c-0.035.222,4.141,0.026,7-5-0.34.246,6-16,6-16a6.7,6.7,0,0,0,0-4c-0.344-.12-5,8-5,8l-1-1,5-10s0.718-4.447-3-3c0.052,0.038-6,12-6,12l-1-1,5-12s1.612-4.221-2-3c-0.34.185-6,14-6,14l-2-1,4-10s0.625-3.506-2-2c-0.057.138-8,18-8,18h-1s-2.994-5.686-5-5C391.065,549.105,387.834,548.887,388,551Zm8-1,6-12-5,4-1-1,7-7s3.307-5.085-1-4c-0.164-.076-13,13-13,13l-1,1s-2.116-8.169-4-7c-0.185.091-3,0-3,0s2.469,14.106,2,17c0.235,0.326,6.455,7.1,9,8-0.273-.342-5-9-5-9s-2.4-3.662,1-5C387.626,548.028,391.691,544.614,396,550Z" transform="translate(-381 -529.844)"/>
</svg>
