<svg xmlns="http://www.w3.org/2000/svg" width="52" height="34.281" viewBox="0 0 52 34.281">
  <defs>
    <style>
      .cls-1 {
        fill: #d5ad79;
        fill-rule: evenodd;
      }
    </style>
  </defs>
  <path id="_6.svg" data-name="6.svg" class="cls-1" d="M541,740l9,6s-3.636,7.83-1,11c0.295,0.015,4.171,6.138,11,4a31.375,31.375,0,0,0,4-3c-0.373.15,9,8,9,8l-2,2-7-6s-2.471,3.367-9,2a14.261,14.261,0,0,1-10-9c-0.229-.266-0.325-4.776,2-8-0.45.191-8-4-8-4Zm12,9s-3.772,2.4-1,7c-0.086.357,3.18,6.067,8,1,0.579-.551,3.44-14.477,31-23C591,733.681,570.79,731.3,553,749Z" transform="translate(-539 -733.719)"/>
</svg>
