<svg width="345" height="538" viewBox="0 0 345 538" fill="none" xmlns="http://www.w3.org/2000/svg">
<g clip-path="url(#clip0)">
<rect width="345" height="538" rx="10" fill="#F0F0F0"/>
<rect x="2" width="345" height="83" fill="#FFEDD8"/>
<path d="M58.576 36.264C56.192 36.264 54.2 35.472 52.6 33.888C51.016 32.288 50.224 30.296 50.224 27.912C50.224 25.528 51.016 23.544 52.6 21.96C54.2 20.36 56.192 19.56 58.576 19.56C60.96 19.56 62.944 20.36 64.528 21.96C66.112 23.544 66.904 25.528 66.904 27.912C66.904 30.296 66.104 32.288 64.504 33.888C62.92 35.472 60.944 36.264 58.576 36.264ZM54.04 23.304C52.824 24.52 52.216 26.056 52.216 27.912C52.216 29.768 52.824 31.304 54.04 32.52C55.272 33.752 56.784 34.368 58.576 34.368C60.384 34.368 61.888 33.752 63.088 32.52C64.304 31.304 64.912 29.768 64.912 27.912C64.912 26.056 64.304 24.52 63.088 23.304C61.888 22.056 60.384 21.432 58.576 21.432C56.768 21.432 55.256 22.056 54.04 23.304ZM72.4473 36V26.904H68.4153V25.2H78.2313V26.904H74.1992V36H72.4473ZM89.137 36H86.953L82.081 30.408L86.497 25.2H88.681L84.265 30.408L89.137 36ZM81.913 25.2V36H80.137V25.2H81.913ZM92.7874 41.4H91.0354V25.2H92.7874V26.688C93.8114 25.536 95.1154 24.96 96.6994 24.96C98.2194 24.96 99.4834 25.504 100.491 26.592C101.515 27.664 102.027 29 102.027 30.6C102.027 32.216 101.515 33.56 100.491 34.632C99.4834 35.704 98.2194 36.24 96.6994 36.24C95.1154 36.24 93.8114 35.664 92.7874 34.512V41.4ZM99.1234 27.84C98.4354 27.104 97.5634 26.736 96.5074 26.736C95.4514 26.736 94.5794 27.104 93.8914 27.84C93.1874 28.592 92.8354 29.512 92.8354 30.6C92.8354 31.688 93.1874 32.608 93.8914 33.36C94.5794 34.096 95.4514 34.464 96.5074 34.464C97.5634 34.464 98.4354 34.096 99.1234 33.36C99.8434 32.624 100.203 31.704 100.203 30.6C100.203 29.496 99.8434 28.576 99.1234 27.84ZM109.817 36H104.465V25.2H106.241V29.088H109.817C110.809 29.088 111.633 29.416 112.289 30.072C112.961 30.712 113.297 31.536 113.297 32.544C113.297 33.36 113.065 34.072 112.601 34.68C112.153 35.272 111.553 35.672 110.801 35.88C110.673 35.912 110.433 35.952 110.081 36H109.817ZM116.801 36H115.025V25.2H116.801V36ZM109.817 30.792H106.241V34.296H109.817C110.281 34.296 110.665 34.128 110.969 33.792C111.289 33.456 111.449 33.04 111.449 32.544C111.449 32.048 111.289 31.632 110.969 31.296C110.665 30.96 110.281 30.792 109.817 30.792ZM122.697 36V26.904H118.665V25.2H128.481V26.904H124.449V36H122.697ZM134.741 24.96C136.325 24.96 137.629 25.536 138.653 26.688V25.2H140.405V36H138.653V34.512C137.629 35.664 136.325 36.24 134.741 36.24C133.221 36.24 131.949 35.704 130.925 34.632C129.917 33.56 129.413 32.216 129.413 30.6C129.413 29.016 129.917 27.68 130.925 26.592C131.965 25.504 133.237 24.96 134.741 24.96ZM137.549 27.84C136.861 27.104 135.989 26.736 134.933 26.736C133.877 26.736 133.005 27.104 132.317 27.84C131.613 28.592 131.261 29.512 131.261 30.6C131.261 31.688 131.613 32.608 132.317 33.36C133.005 34.096 133.877 34.464 134.933 34.464C135.989 34.464 136.861 34.096 137.549 33.36C138.253 32.608 138.605 31.688 138.605 30.6C138.605 29.512 138.253 28.592 137.549 27.84ZM145.026 36H142.938L145.722 32.016C144.922 31.856 144.266 31.464 143.754 30.84C143.242 30.216 142.986 29.48 142.986 28.632C142.986 27.656 143.314 26.84 143.97 26.184C144.658 25.528 145.49 25.2 146.466 25.2H152.322V36H150.57V32.088H147.762L145.026 36ZM146.466 30.384H150.57V26.904H146.466C146.002 26.904 145.61 27.072 145.29 27.408C144.986 27.728 144.834 28.136 144.834 28.632C144.834 29.128 144.986 29.544 145.29 29.88C145.61 30.216 146.002 30.384 146.466 30.384ZM163.284 36H161.196L163.98 32.016C163.18 31.856 162.524 31.464 162.012 30.84C161.5 30.216 161.244 29.48 161.244 28.632C161.244 27.656 161.572 26.84 162.228 26.184C162.916 25.528 163.748 25.2 164.724 25.2H170.58V36H168.828V32.088H166.02L163.284 36ZM164.724 30.384H168.828V26.904H164.724C164.26 26.904 163.868 27.072 163.548 27.408C163.244 27.728 163.092 28.136 163.092 28.632C163.092 29.128 163.244 29.544 163.548 29.88C163.868 30.216 164.26 30.384 164.724 30.384ZM173.078 28.608V25.2H174.902V28.608C174.902 29.136 175.11 29.56 175.526 29.88C175.942 30.2 176.534 30.36 177.302 30.36C177.974 30.36 179.014 30.272 180.422 30.096V25.2H182.174V36H180.422V31.8C178.982 31.976 177.91 32.064 177.206 32.064C175.958 32.064 174.958 31.744 174.206 31.104C173.454 30.464 173.078 29.632 173.078 28.608ZM195.719 31.2H186.455C186.567 32.16 186.991 32.968 187.727 33.624C188.463 34.264 189.351 34.584 190.391 34.584C191.767 34.584 192.831 34.064 193.583 33.024L195.287 33.576C194.791 34.408 194.111 35.064 193.247 35.544C192.383 36.008 191.431 36.24 190.391 36.24C188.727 36.24 187.351 35.704 186.263 34.632C185.175 33.544 184.631 32.2 184.631 30.6C184.631 29 185.167 27.664 186.239 26.592C187.327 25.504 188.655 24.96 190.223 24.96C191.791 24.96 193.103 25.504 194.159 26.592C195.231 27.664 195.767 29 195.767 30.6C195.767 30.84 195.751 31.04 195.719 31.2ZM186.479 29.784H193.943C193.767 28.856 193.327 28.096 192.623 27.504C191.935 26.912 191.119 26.616 190.175 26.616C189.263 26.616 188.463 26.912 187.775 27.504C187.087 28.096 186.655 28.856 186.479 29.784ZM198.075 36V25.2H199.851V33.072L206.523 25.2H208.035V36H206.259V28.176L199.562 36H198.075ZM199.467 19.68H201.027C201.027 20.208 201.219 20.656 201.603 21.024C201.987 21.376 202.467 21.552 203.043 21.552C203.603 21.552 204.075 21.376 204.459 21.024C204.843 20.656 205.035 20.208 205.035 19.68H206.595C206.595 20.64 206.251 21.44 205.563 22.08C204.907 22.72 204.067 23.04 203.043 23.04C202.035 23.04 201.187 22.72 200.499 22.08C199.811 21.44 199.467 20.64 199.467 19.68ZM220.035 36H217.851L212.979 30.408L217.395 25.2H219.579L215.163 30.408L220.035 36ZM212.811 25.2V36H211.035V25.2H212.811ZM226.123 24.96C227.707 24.96 229.011 25.536 230.035 26.688V25.2H231.787V36H230.035V34.512C229.011 35.664 227.707 36.24 226.123 36.24C224.603 36.24 223.331 35.704 222.307 34.632C221.299 33.56 220.795 32.216 220.795 30.6C220.795 29.016 221.299 27.68 222.307 26.592C223.347 25.504 224.619 24.96 226.123 24.96ZM228.931 27.84C228.243 27.104 227.371 26.736 226.315 26.736C225.259 26.736 224.387 27.104 223.699 27.84C222.995 28.592 222.643 29.512 222.643 30.6C222.643 31.688 222.995 32.608 223.699 33.36C224.387 34.096 225.259 34.464 226.315 34.464C227.371 34.464 228.243 34.096 228.931 33.36C229.635 32.608 229.987 31.688 229.987 30.6C229.987 29.512 229.635 28.592 228.931 27.84ZM52.264 45.6V60H51.328V43.8H52.264L59.584 56.472L66.904 43.8H67.84V60H66.904V45.6L59.872 57.768H59.296L52.264 45.6ZM71.5081 52.392C71.5081 51.48 71.8041 50.728 72.3961 50.136C73.0041 49.512 73.7561 49.2 74.6521 49.2H80.3641V60H79.5001V55.608H75.7321L72.6841 60H71.6521L74.7001 55.608H74.6521C73.7561 55.608 73.0041 55.304 72.3961 54.696C71.8041 54.088 71.5081 53.32 71.5081 52.392ZM72.4201 52.392C72.4201 53.064 72.6281 53.624 73.0441 54.072C73.4761 54.52 74.0121 54.744 74.6521 54.744H79.5001V50.04H74.6521C74.0121 50.04 73.4761 50.272 73.0441 50.736C72.6281 51.184 72.4201 51.736 72.4201 52.392ZM85.0178 50.04V60H84.1298V49.2H90.9938V50.04H85.0178ZM101.428 60H100.276L95.0436 54.408L99.8436 49.2H100.972L96.1716 54.408L101.428 60ZM94.2756 49.2V60H93.3876V49.2H94.2756ZM107.934 49.056C108.926 49.056 109.822 49.296 110.622 49.776C111.438 50.256 112.086 50.912 112.566 51.744V49.2H113.43V60H112.566V57.456C112.086 58.288 111.438 58.944 110.622 59.424C109.822 59.904 108.926 60.144 107.934 60.144C106.414 60.144 105.142 59.616 104.118 58.56C103.094 57.52 102.582 56.2 102.582 54.6C102.582 53 103.094 51.68 104.118 50.64C105.142 49.584 106.414 49.056 107.934 49.056ZM112.518 54.6C112.518 53.272 112.086 52.16 111.222 51.264C110.358 50.368 109.286 49.92 108.006 49.92C106.742 49.92 105.662 50.368 104.766 51.264C103.902 52.16 103.47 53.272 103.47 54.6C103.47 55.928 103.902 57.04 104.766 57.936C105.662 58.832 106.742 59.28 108.006 59.28C109.286 59.28 110.358 58.832 111.222 57.936C112.086 57.04 112.518 55.928 112.518 54.6ZM116.672 52.392C116.672 51.48 116.968 50.728 117.56 50.136C118.168 49.512 118.92 49.2 119.816 49.2H125.528V60H124.664V55.608H120.896L117.848 60H116.816L119.864 55.608H119.816C118.92 55.608 118.168 55.304 117.56 54.696C116.968 54.088 116.672 53.32 116.672 52.392ZM117.584 52.392C117.584 53.064 117.792 53.624 118.208 54.072C118.64 54.52 119.176 54.744 119.816 54.744H124.664V50.04H119.816C119.176 50.04 118.64 50.272 118.208 50.736C117.792 51.184 117.584 51.736 117.584 52.392ZM136.955 50.04V60H136.067V49.2H145.571V60H144.683V50.04H136.955ZM159.486 54.816H149.478C149.526 56.112 149.998 57.184 150.894 58.032C151.79 58.88 152.91 59.304 154.254 59.304C155.95 59.304 157.246 58.632 158.142 57.288L158.982 57.576C158.502 58.376 157.846 59.008 157.014 59.472C156.182 59.92 155.262 60.144 154.254 60.144C152.638 60.144 151.286 59.616 150.198 58.56C149.126 57.504 148.59 56.184 148.59 54.6C148.59 53.032 149.11 51.712 150.15 50.64C151.19 49.584 152.486 49.056 154.038 49.056C155.59 49.056 156.886 49.584 157.926 50.64C158.982 51.696 159.51 53.016 159.51 54.6L159.486 54.672C159.486 54.736 159.486 54.784 159.486 54.816ZM149.502 54.048H158.598C158.486 52.88 157.998 51.888 157.134 51.072C156.302 50.288 155.27 49.896 154.038 49.896C152.822 49.896 151.798 50.288 150.965 51.072C150.102 51.888 149.614 52.88 149.502 54.048ZM163.276 54.936V60H162.388V49.2H163.276V54.072H171.124V49.2H171.988V60H171.124V54.936H163.276ZM180.379 49.056C181.371 49.056 182.267 49.296 183.067 49.776C183.883 50.256 184.531 50.912 185.011 51.744V49.2H185.875V60H185.011V57.456C184.531 58.288 183.883 58.944 183.067 59.424C182.267 59.904 181.371 60.144 180.379 60.144C178.859 60.144 177.587 59.616 176.563 58.56C175.539 57.52 175.027 56.2 175.027 54.6C175.027 53 175.539 51.68 176.563 50.64C177.587 49.584 178.859 49.056 180.379 49.056ZM184.963 54.6C184.963 53.272 184.531 52.16 183.667 51.264C182.803 50.368 181.731 49.92 180.451 49.92C179.187 49.92 178.107 50.368 177.211 51.264C176.347 52.16 175.915 53.272 175.915 54.6C175.915 55.928 176.347 57.04 177.211 57.936C178.107 58.832 179.187 59.28 180.451 59.28C181.731 59.28 182.803 58.832 183.667 57.936C184.531 57.04 184.963 55.928 184.963 54.6Z" fill="black"/>
<rect x="0.1" y="269.1" width="344.8" height="82.8" fill="#FFFED8" stroke="#B3B3B3" stroke-width="0.2"/>
<path d="M56.392 305.24C53.32 305.24 51.192 303.944 50.008 301.352L51.88 300.632C52.712 302.456 54.208 303.368 56.368 303.368C57.632 303.368 58.664 303.088 59.464 302.528C60.264 301.952 60.664 301.216 60.664 300.32C60.664 299.568 60.376 298.912 59.8 298.352C59.24 297.792 58.544 297.512 57.712 297.512H54.568V295.712H57.664C58.384 295.712 58.992 295.472 59.488 294.992C60 294.496 60.256 293.904 60.256 293.216C60.256 292.384 59.888 291.712 59.152 291.2C58.432 290.688 57.488 290.432 56.32 290.432C54.224 290.432 52.76 291.344 51.928 293.168L50.08 292.472C51.248 289.864 53.336 288.56 56.344 288.56C58.056 288.56 59.472 288.984 60.592 289.832C61.712 290.664 62.272 291.736 62.272 293.048C62.272 294.584 61.576 295.76 60.184 296.576C60.952 296.96 61.56 297.504 62.008 298.208C62.456 298.896 62.68 299.656 62.68 300.488C62.68 301.864 62.08 303 60.88 303.896C59.696 304.792 58.2 305.24 56.392 305.24ZM69.9359 293.96C71.5199 293.96 72.8239 294.536 73.8479 295.688V294.2H75.5999V305H73.8479V303.512C72.8239 304.664 71.5199 305.24 69.9359 305.24C68.4159 305.24 67.1439 304.704 66.1199 303.632C65.1119 302.56 64.6079 301.216 64.6079 299.6C64.6079 298.016 65.1119 296.68 66.1199 295.592C67.1599 294.504 68.4319 293.96 69.9359 293.96ZM72.7439 296.84C72.0559 296.104 71.1839 295.736 70.1279 295.736C69.0719 295.736 68.1999 296.104 67.5119 296.84C66.8079 297.592 66.4559 298.512 66.4559 299.6C66.4559 300.688 66.8079 301.608 67.5119 302.36C68.1999 303.096 69.0719 303.464 70.1279 303.464C71.1839 303.464 72.0559 303.096 72.7439 302.36C73.4479 301.608 73.7999 300.688 73.7999 299.6C73.7999 298.512 73.4479 297.592 72.7439 296.84ZM87.6136 305H85.4296L80.5576 299.408L84.9736 294.2H87.1576L82.7416 299.408L87.6136 305ZM80.3896 294.2V305H78.6136V294.2H80.3896ZM91.264 310.4H89.512V294.2H91.264V295.688C92.288 294.536 93.592 293.96 95.176 293.96C96.696 293.96 97.96 294.504 98.968 295.592C99.992 296.664 100.504 298 100.504 299.6C100.504 301.216 99.992 302.56 98.968 303.632C97.96 304.704 96.696 305.24 95.176 305.24C93.592 305.24 92.288 304.664 91.264 303.512V310.4ZM97.6 296.84C96.912 296.104 96.04 295.736 94.984 295.736C93.928 295.736 93.056 296.104 92.368 296.84C91.664 297.592 91.312 298.512 91.312 299.6C91.312 300.688 91.664 301.608 92.368 302.36C93.056 303.096 93.928 303.464 94.984 303.464C96.04 303.464 96.912 303.096 97.6 302.36C98.32 301.624 98.68 300.704 98.68 299.6C98.68 298.496 98.32 297.576 97.6 296.84ZM108.294 305H102.942V294.2H104.718V298.088H108.294C109.286 298.088 110.11 298.416 110.766 299.072C111.438 299.712 111.774 300.536 111.774 301.544C111.774 302.36 111.542 303.072 111.078 303.68C110.63 304.272 110.03 304.672 109.278 304.88C109.15 304.912 108.91 304.952 108.558 305H108.294ZM115.278 305H113.502V294.2H115.278V305ZM108.294 299.792H104.718V303.296H108.294C108.758 303.296 109.142 303.128 109.446 302.792C109.766 302.456 109.926 302.04 109.926 301.544C109.926 301.048 109.766 300.632 109.446 300.296C109.142 299.96 108.758 299.792 108.294 299.792ZM121.174 305V295.904H117.142V294.2H126.958V295.904H122.926V305H121.174ZM133.217 293.96C134.801 293.96 136.105 294.536 137.129 295.688V294.2H138.881V305H137.129V303.512C136.105 304.664 134.801 305.24 133.217 305.24C131.697 305.24 130.425 304.704 129.401 303.632C128.393 302.56 127.889 301.216 127.889 299.6C127.889 298.016 128.393 296.68 129.401 295.592C130.441 294.504 131.713 293.96 133.217 293.96ZM136.025 296.84C135.337 296.104 134.465 295.736 133.409 295.736C132.353 295.736 131.481 296.104 130.793 296.84C130.089 297.592 129.737 298.512 129.737 299.6C129.737 300.688 130.089 301.608 130.793 302.36C131.481 303.096 132.353 303.464 133.409 303.464C134.465 303.464 135.337 303.096 136.025 302.36C136.729 301.608 137.081 300.688 137.081 299.6C137.081 298.512 136.729 297.592 136.025 296.84ZM143.503 305H141.415L144.199 301.016C143.399 300.856 142.743 300.464 142.231 299.84C141.719 299.216 141.463 298.48 141.463 297.632C141.463 296.656 141.791 295.84 142.447 295.184C143.135 294.528 143.967 294.2 144.943 294.2H150.799V305H149.047V301.088H146.239L143.503 305ZM144.943 299.384H149.047V295.904H144.943C144.479 295.904 144.087 296.072 143.767 296.408C143.463 296.728 143.311 297.136 143.311 297.632C143.311 298.128 143.463 298.544 143.767 298.88C144.087 299.216 144.479 299.384 144.943 299.384ZM161.761 305H159.673L162.457 301.016C161.657 300.856 161.001 300.464 160.489 299.84C159.977 299.216 159.721 298.48 159.721 297.632C159.721 296.656 160.049 295.84 160.705 295.184C161.393 294.528 162.225 294.2 163.201 294.2H169.057V305H167.305V301.088H164.497L161.761 305ZM163.201 299.384H167.305V295.904H163.201C162.737 295.904 162.345 296.072 162.025 296.408C161.721 296.728 161.569 297.136 161.569 297.632C161.569 298.128 161.721 298.544 162.025 298.88C162.345 299.216 162.737 299.384 163.201 299.384ZM171.554 297.608V294.2H173.378V297.608C173.378 298.136 173.586 298.56 174.002 298.88C174.418 299.2 175.01 299.36 175.778 299.36C176.45 299.36 177.49 299.272 178.898 299.096V294.2H180.65V305H178.898V300.8C177.458 300.976 176.386 301.064 175.682 301.064C174.434 301.064 173.434 300.744 172.682 300.104C171.93 299.464 171.554 298.632 171.554 297.608ZM194.196 300.2H184.932C185.044 301.16 185.468 301.968 186.204 302.624C186.94 303.264 187.828 303.584 188.868 303.584C190.244 303.584 191.308 303.064 192.06 302.024L193.764 302.576C193.268 303.408 192.588 304.064 191.724 304.544C190.86 305.008 189.908 305.24 188.868 305.24C187.204 305.24 185.828 304.704 184.74 303.632C183.652 302.544 183.108 301.2 183.108 299.6C183.108 298 183.644 296.664 184.716 295.592C185.804 294.504 187.132 293.96 188.7 293.96C190.268 293.96 191.58 294.504 192.636 295.592C193.708 296.664 194.244 298 194.244 299.6C194.244 299.84 194.228 300.04 194.196 300.2ZM184.956 298.784H192.42C192.244 297.856 191.804 297.096 191.1 296.504C190.412 295.912 189.596 295.616 188.652 295.616C187.74 295.616 186.94 295.912 186.252 296.504C185.564 297.096 185.132 297.856 184.956 298.784ZM196.551 305V294.2H198.327V302.072L204.999 294.2H206.511V305H204.735V297.176L198.039 305H196.551ZM197.943 288.68H199.503C199.503 289.208 199.695 289.656 200.079 290.024C200.463 290.376 200.943 290.552 201.519 290.552C202.079 290.552 202.551 290.376 202.935 290.024C203.319 289.656 203.511 289.208 203.511 288.68H205.071C205.071 289.64 204.727 290.44 204.039 291.08C203.383 291.72 202.543 292.04 201.519 292.04C200.511 292.04 199.663 291.72 198.975 291.08C198.287 290.44 197.943 289.64 197.943 288.68ZM218.512 305H216.328L211.456 299.408L215.872 294.2H218.056L213.64 299.408L218.512 305ZM211.288 294.2V305H209.512V294.2H211.288ZM224.6 293.96C226.184 293.96 227.488 294.536 228.512 295.688V294.2H230.264V305H228.512V303.512C227.488 304.664 226.184 305.24 224.6 305.24C223.08 305.24 221.808 304.704 220.784 303.632C219.776 302.56 219.272 301.216 219.272 299.6C219.272 298.016 219.776 296.68 220.784 295.592C221.824 294.504 223.096 293.96 224.6 293.96ZM227.408 296.84C226.72 296.104 225.848 295.736 224.792 295.736C223.736 295.736 222.864 296.104 222.176 296.84C221.472 297.592 221.12 298.512 221.12 299.6C221.12 300.688 221.472 301.608 222.176 302.36C222.864 303.096 223.736 303.464 224.792 303.464C225.848 303.464 226.72 303.096 227.408 302.36C228.112 301.608 228.464 300.688 228.464 299.6C228.464 298.512 228.112 297.592 227.408 296.84ZM70.936 329H69.712L61.888 320.768L69.256 312.8H70.48L63.112 320.768L70.936 329ZM50.824 329H49.624L57.448 320.768L50.08 312.8H51.304L58.672 320.768L50.824 329ZM60.736 312.8V329H59.824V312.8H60.736ZM83.0793 323.816H73.0713C73.1193 325.112 73.5913 326.184 74.4873 327.032C75.3833 327.88 76.5033 328.304 77.8473 328.304C79.5433 328.304 80.8393 327.632 81.7353 326.288L82.5753 326.576C82.0953 327.376 81.4393 328.008 80.6073 328.472C79.7753 328.92 78.8553 329.144 77.8473 329.144C76.2313 329.144 74.8793 328.616 73.7913 327.56C72.7193 326.504 72.1833 325.184 72.1833 323.6C72.1833 322.032 72.7033 320.712 73.7433 319.64C74.7833 318.584 76.0793 318.056 77.6313 318.056C79.1833 318.056 80.4793 318.584 81.5193 319.64C82.5753 320.696 83.1033 322.016 83.1033 323.6L83.0793 323.672C83.0793 323.736 83.0793 323.784 83.0793 323.816ZM73.0953 323.048H82.1913C82.0793 321.88 81.5913 320.888 80.7273 320.072C79.8953 319.288 78.8633 318.896 77.6313 318.896C76.4153 318.896 75.3913 319.288 74.5592 320.072C73.6953 320.888 73.2073 321.88 73.0953 323.048ZM95.7254 321.008L94.8614 321.272C94.4774 320.552 93.9174 319.984 93.1814 319.568C92.4614 319.136 91.6694 318.92 90.8054 318.92C89.4774 318.92 88.3654 319.368 87.4694 320.264C86.5894 321.144 86.1494 322.256 86.1494 323.6C86.1494 324.944 86.5894 326.056 87.4694 326.936C88.3654 327.832 89.4774 328.28 90.8054 328.28C91.7014 328.28 92.5014 328.072 93.2054 327.656C93.9254 327.24 94.4774 326.664 94.8614 325.928L95.7254 326.192C95.2774 327.104 94.6134 327.824 93.7334 328.352C92.8694 328.88 91.8934 329.144 90.8054 329.144C89.2214 329.144 87.9014 328.616 86.8454 327.56C85.7894 326.504 85.2614 325.184 85.2614 323.6C85.2614 322.016 85.7894 320.696 86.8454 319.64C87.9014 318.584 89.2214 318.056 90.8054 318.056C91.8934 318.056 92.8694 318.32 93.7334 318.848C94.6134 319.376 95.2774 320.096 95.7254 321.008ZM101.806 329V319.04H97.2702V318.2H107.206V319.04H102.694V329H101.806ZM117.646 329H116.494L111.262 323.408L116.062 318.2H117.19L112.39 323.408L117.646 329ZM110.494 318.2V329H109.606V318.2H110.494ZM124.152 318.056C125.144 318.056 126.04 318.296 126.84 318.776C127.656 319.256 128.304 319.912 128.784 320.744V318.2H129.648V329H128.784V326.456C128.304 327.288 127.656 327.944 126.84 328.424C126.04 328.904 125.144 329.144 124.152 329.144C122.632 329.144 121.36 328.616 120.336 327.56C119.312 326.52 118.8 325.2 118.8 323.6C118.8 322 119.312 320.68 120.336 319.64C121.36 318.584 122.632 318.056 124.152 318.056ZM128.736 323.6C128.736 322.272 128.304 321.16 127.44 320.264C126.576 319.368 125.504 318.92 124.224 318.92C122.96 318.92 121.88 319.368 120.984 320.264C120.12 321.16 119.688 322.272 119.688 323.6C119.688 324.928 120.12 326.04 120.984 326.936C121.88 327.832 122.96 328.28 124.224 328.28C125.504 328.28 126.576 327.832 127.44 326.936C128.304 326.04 128.736 324.928 128.736 323.6ZM132.891 321.392C132.891 320.48 133.187 319.728 133.779 319.136C134.387 318.512 135.139 318.2 136.035 318.2H141.747V329H140.883V324.608H137.115L134.067 329H133.035L136.083 324.608H136.035C135.139 324.608 134.387 324.304 133.779 323.696C133.187 323.088 132.891 322.32 132.891 321.392ZM133.803 321.392C133.803 322.064 134.011 322.624 134.427 323.072C134.859 323.52 135.395 323.744 136.035 323.744H140.883V319.04H136.035C135.395 319.04 134.859 319.272 134.427 319.736C134.011 320.184 133.803 320.736 133.803 321.392ZM153.174 319.04V329H152.286V318.2H161.79V329H160.902V319.04H153.174ZM175.704 323.816H165.696C165.744 325.112 166.216 326.184 167.112 327.032C168.008 327.88 169.128 328.304 170.472 328.304C172.168 328.304 173.464 327.632 174.36 326.288L175.2 326.576C174.72 327.376 174.064 328.008 173.232 328.472C172.4 328.92 171.48 329.144 170.472 329.144C168.856 329.144 167.504 328.616 166.416 327.56C165.344 326.504 164.808 325.184 164.808 323.6C164.808 322.032 165.328 320.712 166.368 319.64C167.408 318.584 168.704 318.056 170.256 318.056C171.808 318.056 173.104 318.584 174.144 319.64C175.2 320.696 175.728 322.016 175.728 323.6L175.704 323.672C175.704 323.736 175.704 323.784 175.704 323.816ZM165.72 323.048H174.816C174.704 321.88 174.216 320.888 173.352 320.072C172.52 319.288 171.488 318.896 170.256 318.896C169.04 318.896 168.016 319.288 167.184 320.072C166.32 320.888 165.832 321.88 165.72 323.048ZM179.494 323.936V329H178.606V318.2H179.494V323.072H187.342V318.2H188.206V329H187.342V323.936H179.494ZM196.598 318.056C197.59 318.056 198.486 318.296 199.286 318.776C200.102 319.256 200.75 319.912 201.23 320.744V318.2H202.094V329H201.23V326.456C200.75 327.288 200.102 327.944 199.286 328.424C198.486 328.904 197.59 329.144 196.598 329.144C195.078 329.144 193.806 328.616 192.782 327.56C191.758 326.52 191.246 325.2 191.246 323.6C191.246 322 191.758 320.68 192.782 319.64C193.806 318.584 195.078 318.056 196.598 318.056ZM201.182 323.6C201.182 322.272 200.75 321.16 199.886 320.264C199.022 319.368 197.95 318.92 196.67 318.92C195.406 318.92 194.326 319.368 193.43 320.264C192.566 321.16 192.134 322.272 192.134 323.6C192.134 324.928 192.566 326.04 193.43 326.936C194.326 327.832 195.406 328.28 196.67 328.28C197.95 328.28 199.022 327.832 199.886 326.936C200.75 326.04 201.182 324.928 201.182 323.6Z" fill="black"/>
</g>
<rect x="0.1" y="83.1" width="165.523" height="61.8" fill="#E1E1E1" fill-opacity="0.5" stroke="#B3B3B3" stroke-width="0.2"/>
<path d="M61.7515 112.568C61.7515 113.66 61.3255 114.578 60.4735 115.322C59.6215 116.066 58.5895 116.438 57.3775 116.438C56.4895 116.438 55.6915 116.234 54.9835 115.826C54.2755 115.418 53.7415 114.866 53.3815 114.17L54.0475 113.936C54.3595 114.5 54.8095 114.944 55.3975 115.268C55.9855 115.592 56.6455 115.754 57.3775 115.754C58.4095 115.754 59.2795 115.454 59.9875 114.854C60.6955 114.242 61.0495 113.486 61.0495 112.586C61.0495 111.662 60.6895 110.906 59.9695 110.318C59.2615 109.706 58.3855 109.4 57.3415 109.4H54.2275L54.7675 104.162H60.8515V104.81H55.3795L54.9655 108.752H57.3415C58.5895 108.752 59.6335 109.118 60.4735 109.85C61.3255 110.594 61.7515 111.5 61.7515 112.568ZM64.2172 112.208V108.266C64.2172 107.066 64.6372 106.064 65.4772 105.26C66.3172 104.456 67.3792 104.054 68.6632 104.054C69.9352 104.054 70.9912 104.456 71.8312 105.26C72.6832 106.076 73.1092 107.078 73.1092 108.266V112.208C73.1092 113.408 72.6832 114.416 71.8312 115.232C70.9912 116.036 69.9352 116.438 68.6632 116.438C67.3792 116.438 66.3172 116.036 65.4772 115.232C64.6372 114.428 64.2172 113.42 64.2172 112.208ZM64.8832 108.266V112.208C64.8832 113.216 65.2432 114.062 65.9632 114.746C66.7072 115.418 67.6072 115.754 68.6632 115.754C69.7192 115.754 70.6132 115.418 71.3452 114.746C72.0652 114.062 72.4252 113.216 72.4252 112.208V108.266C72.4252 107.246 72.0652 106.406 71.3452 105.746C70.6252 105.062 69.7312 104.72 68.6632 104.72C67.6072 104.72 66.7072 105.062 65.9632 105.746C65.2432 106.406 64.8832 107.246 64.8832 108.266ZM76.5036 109.49V116.312H75.8376V108.212H76.5036L80.0496 114.458L83.5956 108.212H84.2616V116.312H83.5956V109.526L80.2656 115.376H79.8516L76.5036 109.49ZM87.7536 109.49V116.312H87.0876V108.212H87.7536L91.2996 114.458L94.8456 108.212H95.5116V116.312H94.8456V109.526L91.5156 115.376H91.1016L87.7536 109.49Z" fill="black"/>
<rect x="165.823" y="83.1" width="179.077" height="61.8" fill="#E1E1E1" fill-opacity="0.5" stroke="#B3B3B3" stroke-width="0.2"/>
<path d="M198.932 116.18C197.72 116.18 196.712 115.778 195.908 114.974C195.104 114.17 194.702 113.162 194.702 111.95C194.702 110.738 195.104 109.73 195.908 108.926C196.712 108.122 197.72 107.72 198.932 107.72C200.132 107.72 201.134 108.122 201.938 108.926C202.754 109.742 203.162 110.75 203.162 111.95C203.162 113.15 202.754 114.158 201.938 114.974C201.134 115.778 200.132 116.18 198.932 116.18ZM198.932 109.052C198.116 109.052 197.438 109.328 196.898 109.88C196.358 110.432 196.088 111.122 196.088 111.95C196.088 112.778 196.358 113.468 196.898 114.02C197.438 114.572 198.116 114.848 198.932 114.848C199.748 114.848 200.426 114.572 200.966 114.02C201.506 113.468 201.776 112.778 201.776 111.95C201.776 111.122 201.506 110.432 200.966 109.88C200.426 109.328 199.748 109.052 198.932 109.052ZM206.998 116V109.178H203.974V107.9H211.336V109.178H208.312V116H206.998ZM223.937 107.054C223.937 106.466 223.679 105.986 223.163 105.614C222.659 105.218 222.023 105.02 221.255 105.02C220.643 105.02 220.097 105.152 219.617 105.416C219.137 105.68 218.789 106.034 218.573 106.478L217.313 105.848C217.637 105.176 218.147 104.648 218.843 104.264C219.551 103.868 220.355 103.67 221.255 103.67C222.443 103.67 223.427 103.994 224.207 104.642C224.999 105.278 225.395 106.07 225.395 107.018C225.395 107.594 225.233 108.122 224.909 108.602C224.597 109.07 224.153 109.448 223.577 109.736C224.225 110.012 224.735 110.414 225.107 110.942C225.491 111.458 225.683 112.034 225.683 112.67C225.683 113.678 225.263 114.512 224.423 115.172C223.583 115.844 222.545 116.18 221.309 116.18C220.337 116.18 219.473 115.97 218.717 115.55C217.973 115.118 217.451 114.542 217.151 113.822L218.501 113.318C218.693 113.774 219.041 114.14 219.545 114.416C220.049 114.692 220.637 114.83 221.309 114.83C222.137 114.83 222.833 114.62 223.397 114.2C223.949 113.792 224.225 113.264 224.225 112.616C224.225 112.004 223.949 111.494 223.397 111.086C222.845 110.666 222.173 110.456 221.381 110.456H220.463V109.142H221.129C221.945 109.142 222.611 108.944 223.127 108.548C223.667 108.152 223.937 107.654 223.937 107.054ZM234.149 116V113.462H227.381V112.112L234.239 103.85H235.553V112.112H237.335V113.462H235.553V116H234.149ZM234.149 105.992L229.091 112.112H234.149V105.992ZM239.06 111.896V107.954C239.06 106.73 239.498 105.716 240.374 104.912C241.262 104.084 242.348 103.67 243.632 103.67C244.928 103.67 246.008 104.084 246.872 104.912C247.748 105.716 248.186 106.73 248.186 107.954V111.896C248.186 113.12 247.754 114.14 246.89 114.956C246.014 115.772 244.928 116.18 243.632 116.18C242.348 116.18 241.262 115.772 240.374 114.956C239.498 114.152 239.06 113.132 239.06 111.896ZM240.464 107.936V111.914C240.464 112.742 240.77 113.438 241.382 114.002C241.982 114.554 242.732 114.83 243.632 114.83C244.532 114.83 245.276 114.554 245.864 114.002C246.476 113.438 246.782 112.742 246.782 111.914V107.936C246.782 107.12 246.476 106.43 245.864 105.866C245.264 105.302 244.52 105.02 243.632 105.02C242.756 105.02 242.006 105.302 241.382 105.866C240.77 106.43 240.464 107.12 240.464 107.936ZM251.714 120.05H250.4V107.9H251.714V109.016C252.482 108.152 253.46 107.72 254.648 107.72C255.788 107.72 256.736 108.128 257.492 108.944C258.26 109.748 258.644 110.75 258.644 111.95C258.644 113.162 258.26 114.17 257.492 114.974C256.736 115.778 255.788 116.18 254.648 116.18C253.46 116.18 252.482 115.748 251.714 114.884V120.05ZM256.466 109.88C255.95 109.328 255.296 109.052 254.504 109.052C253.712 109.052 253.058 109.328 252.542 109.88C252.014 110.444 251.75 111.134 251.75 111.95C251.75 112.766 252.014 113.456 252.542 114.02C253.058 114.572 253.712 114.848 254.504 114.848C255.296 114.848 255.95 114.572 256.466 114.02C257.006 113.468 257.276 112.778 257.276 111.95C257.276 111.122 257.006 110.432 256.466 109.88ZM264.732 113.93L266.064 113.588C266.4 114.464 267.126 114.902 268.242 114.902C268.878 114.902 269.4 114.77 269.808 114.506C270.228 114.23 270.438 113.894 270.438 113.498C270.438 113.174 270.318 112.91 270.078 112.706C269.838 112.49 269.538 112.382 269.178 112.382H267.198V111.266H269.088C269.424 111.266 269.706 111.17 269.934 110.978C270.162 110.786 270.276 110.552 270.276 110.276C270.276 109.904 270.084 109.598 269.7 109.358C269.328 109.118 268.854 108.998 268.278 108.998C267.162 108.998 266.442 109.436 266.118 110.312L264.786 109.97C265.038 109.262 265.476 108.71 266.1 108.314C266.736 107.918 267.486 107.72 268.35 107.72C269.286 107.72 270.072 107.948 270.708 108.404C271.332 108.848 271.644 109.412 271.644 110.096C271.644 110.804 271.308 111.368 270.636 111.788C271.416 112.22 271.806 112.844 271.806 113.66C271.806 114.368 271.47 114.968 270.798 115.46C270.138 115.94 269.298 116.18 268.278 116.18C267.402 116.18 266.652 115.982 266.028 115.586C265.404 115.19 264.972 114.638 264.732 113.93ZM277.202 107.72C278.39 107.72 279.368 108.152 280.136 109.016V107.9H281.45V116H280.136V114.884C279.368 115.748 278.39 116.18 277.202 116.18C276.062 116.18 275.108 115.778 274.34 114.974C273.584 114.17 273.206 113.162 273.206 111.95C273.206 110.762 273.584 109.76 274.34 108.944C275.12 108.128 276.074 107.72 277.202 107.72ZM279.308 109.88C278.792 109.328 278.138 109.052 277.346 109.052C276.554 109.052 275.9 109.328 275.384 109.88C274.856 110.444 274.592 111.134 274.592 111.95C274.592 112.766 274.856 113.456 275.384 114.02C275.9 114.572 276.554 114.848 277.346 114.848C278.138 114.848 278.792 114.572 279.308 114.02C279.836 113.456 280.1 112.766 280.1 111.95C280.1 111.134 279.836 110.444 279.308 109.88ZM291.318 105.65L288.834 106.982L288.222 105.74L291.75 103.85H292.722V116H291.318V105.65ZM302.058 110.42V116H300.726V107.9H302.058L305.136 113.264L308.196 107.9H309.528V116H308.196V110.456L305.532 115.064H304.722L302.058 110.42ZM314.68 104.93C314.68 104.618 314.548 104.348 314.284 104.12C314.02 103.892 313.708 103.778 313.348 103.778C312.676 103.778 312.19 104.144 311.89 104.876L311.026 104.444C311.23 103.964 311.542 103.586 311.962 103.31C312.382 103.022 312.844 102.878 313.348 102.878C313.984 102.878 314.53 103.076 314.986 103.472C315.43 103.868 315.652 104.342 315.652 104.894C315.652 105.53 315.184 106.28 314.248 107.144L312.574 108.746H315.742V109.628H311.134V108.962L313.636 106.55C314.332 105.89 314.68 105.35 314.68 104.93Z" fill="black"/>
<rect x="165.823" y="145.1" width="179.077" height="61.8" fill="#E1E1E1" fill-opacity="0.5" stroke="#B3B3B3" stroke-width="0.2"/>
<path d="M198.932 178.18C197.72 178.18 196.712 177.778 195.908 176.974C195.104 176.17 194.702 175.162 194.702 173.95C194.702 172.738 195.104 171.73 195.908 170.926C196.712 170.122 197.72 169.72 198.932 169.72C200.132 169.72 201.134 170.122 201.938 170.926C202.754 171.742 203.162 172.75 203.162 173.95C203.162 175.15 202.754 176.158 201.938 176.974C201.134 177.778 200.132 178.18 198.932 178.18ZM198.932 171.052C198.116 171.052 197.438 171.328 196.898 171.88C196.358 172.432 196.088 173.122 196.088 173.95C196.088 174.778 196.358 175.468 196.898 176.02C197.438 176.572 198.116 176.848 198.932 176.848C199.748 176.848 200.426 176.572 200.966 176.02C201.506 175.468 201.776 174.778 201.776 173.95C201.776 173.122 201.506 172.432 200.966 171.88C200.426 171.328 199.748 171.052 198.932 171.052ZM206.998 178V171.178H203.974V169.9H211.336V171.178H208.312V178H206.998ZM221.453 178.18C220.493 178.18 219.635 177.94 218.879 177.46C218.123 176.98 217.565 176.338 217.205 175.534L218.591 175.138C218.843 175.654 219.221 176.068 219.725 176.38C220.241 176.68 220.817 176.83 221.453 176.83C222.305 176.83 223.025 176.584 223.613 176.092C224.201 175.588 224.495 174.964 224.495 174.22C224.495 173.452 224.189 172.816 223.577 172.312C222.977 171.796 222.221 171.538 221.309 171.538H218.087L218.663 165.85H224.981V167.146H219.851L219.527 170.242H221.363C222.671 170.242 223.763 170.62 224.639 171.376C225.515 172.132 225.953 173.074 225.953 174.202C225.953 175.318 225.521 176.266 224.657 177.046C223.793 177.802 222.725 178.18 221.453 178.18ZM234.431 169.054C234.431 168.466 234.173 167.986 233.657 167.614C233.153 167.218 232.517 167.02 231.749 167.02C231.137 167.02 230.591 167.152 230.111 167.416C229.631 167.68 229.283 168.034 229.067 168.478L227.807 167.848C228.131 167.176 228.641 166.648 229.337 166.264C230.045 165.868 230.849 165.67 231.749 165.67C232.937 165.67 233.921 165.994 234.701 166.642C235.493 167.278 235.889 168.07 235.889 169.018C235.889 169.594 235.727 170.122 235.403 170.602C235.091 171.07 234.647 171.448 234.071 171.736C234.719 172.012 235.229 172.414 235.601 172.942C235.985 173.458 236.177 174.034 236.177 174.67C236.177 175.678 235.757 176.512 234.917 177.172C234.077 177.844 233.039 178.18 231.803 178.18C230.831 178.18 229.967 177.97 229.211 177.55C228.467 177.118 227.945 176.542 227.645 175.822L228.995 175.318C229.187 175.774 229.535 176.14 230.039 176.416C230.543 176.692 231.131 176.83 231.803 176.83C232.631 176.83 233.327 176.62 233.891 176.2C234.443 175.792 234.719 175.264 234.719 174.616C234.719 174.004 234.443 173.494 233.891 173.086C233.339 172.666 232.667 172.456 231.875 172.456H230.957V171.142H231.623C232.439 171.142 233.105 170.944 233.621 170.548C234.161 170.152 234.431 169.654 234.431 169.054ZM238.164 173.896V169.954C238.164 168.73 238.602 167.716 239.478 166.912C240.366 166.084 241.452 165.67 242.736 165.67C244.032 165.67 245.112 166.084 245.976 166.912C246.852 167.716 247.29 168.73 247.29 169.954V173.896C247.29 175.12 246.858 176.14 245.994 176.956C245.118 177.772 244.032 178.18 242.736 178.18C241.452 178.18 240.366 177.772 239.478 176.956C238.602 176.152 238.164 175.132 238.164 173.896ZM239.568 169.936V173.914C239.568 174.742 239.874 175.438 240.486 176.002C241.086 176.554 241.836 176.83 242.736 176.83C243.636 176.83 244.38 176.554 244.968 176.002C245.58 175.438 245.886 174.742 245.886 173.914V169.936C245.886 169.12 245.58 168.43 244.968 167.866C244.368 167.302 243.624 167.02 242.736 167.02C241.86 167.02 241.11 167.302 240.486 167.866C239.874 168.43 239.568 169.12 239.568 169.936ZM250.817 182.05H249.503V169.9H250.817V171.016C251.585 170.152 252.563 169.72 253.751 169.72C254.891 169.72 255.839 170.128 256.595 170.944C257.363 171.748 257.747 172.75 257.747 173.95C257.747 175.162 257.363 176.17 256.595 176.974C255.839 177.778 254.891 178.18 253.751 178.18C252.563 178.18 251.585 177.748 250.817 176.884V182.05ZM255.569 171.88C255.053 171.328 254.399 171.052 253.607 171.052C252.815 171.052 252.161 171.328 251.645 171.88C251.117 172.444 250.853 173.134 250.853 173.95C250.853 174.766 251.117 175.456 251.645 176.02C252.161 176.572 252.815 176.848 253.607 176.848C254.399 176.848 255.053 176.572 255.569 176.02C256.109 175.468 256.379 174.778 256.379 173.95C256.379 173.122 256.109 172.432 255.569 171.88ZM263.836 175.93L265.168 175.588C265.504 176.464 266.23 176.902 267.346 176.902C267.982 176.902 268.504 176.77 268.912 176.506C269.332 176.23 269.542 175.894 269.542 175.498C269.542 175.174 269.422 174.91 269.182 174.706C268.942 174.49 268.642 174.382 268.282 174.382H266.302V173.266H268.192C268.528 173.266 268.81 173.17 269.038 172.978C269.266 172.786 269.38 172.552 269.38 172.276C269.38 171.904 269.188 171.598 268.804 171.358C268.432 171.118 267.958 170.998 267.382 170.998C266.266 170.998 265.546 171.436 265.222 172.312L263.89 171.97C264.142 171.262 264.58 170.71 265.204 170.314C265.84 169.918 266.59 169.72 267.454 169.72C268.39 169.72 269.176 169.948 269.812 170.404C270.436 170.848 270.748 171.412 270.748 172.096C270.748 172.804 270.412 173.368 269.74 173.788C270.52 174.22 270.91 174.844 270.91 175.66C270.91 176.368 270.574 176.968 269.902 177.46C269.242 177.94 268.402 178.18 267.382 178.18C266.506 178.18 265.756 177.982 265.132 177.586C264.508 177.19 264.076 176.638 263.836 175.93ZM276.305 169.72C277.493 169.72 278.471 170.152 279.239 171.016V169.9H280.553V178H279.239V176.884C278.471 177.748 277.493 178.18 276.305 178.18C275.165 178.18 274.211 177.778 273.443 176.974C272.687 176.17 272.309 175.162 272.309 173.95C272.309 172.762 272.687 171.76 273.443 170.944C274.223 170.128 275.177 169.72 276.305 169.72ZM278.411 171.88C277.895 171.328 277.241 171.052 276.449 171.052C275.657 171.052 275.003 171.328 274.487 171.88C273.959 172.444 273.695 173.134 273.695 173.95C273.695 174.766 273.959 175.456 274.487 176.02C275.003 176.572 275.657 176.848 276.449 176.848C277.241 176.848 277.895 176.572 278.411 176.02C278.939 175.456 279.203 174.766 279.203 173.95C279.203 173.134 278.939 172.444 278.411 171.88ZM290.422 167.65L287.938 168.982L287.326 167.74L290.854 165.85H291.826V178H290.422V167.65ZM301.161 172.42V178H299.829V169.9H301.161L304.239 175.264L307.299 169.9H308.631V178H307.299V172.456L304.635 177.064H303.825L301.161 172.42ZM313.784 166.93C313.784 166.618 313.652 166.348 313.388 166.12C313.124 165.892 312.812 165.778 312.452 165.778C311.78 165.778 311.294 166.144 310.994 166.876L310.13 166.444C310.334 165.964 310.646 165.586 311.066 165.31C311.486 165.022 311.948 164.878 312.452 164.878C313.088 164.878 313.634 165.076 314.09 165.472C314.534 165.868 314.756 166.342 314.756 166.894C314.756 167.53 314.288 168.28 313.352 169.144L311.678 170.746H314.846V171.628H310.238V170.962L312.74 168.55C313.436 167.89 313.784 167.35 313.784 166.93Z" fill="black"/>
<rect x="165.823" y="207.1" width="179.077" height="61.8" fill="#E1E1E1" fill-opacity="0.5" stroke="#B3B3B3" stroke-width="0.2"/>
<path d="M199.932 240.18C198.72 240.18 197.712 239.778 196.908 238.974C196.104 238.17 195.702 237.162 195.702 235.95C195.702 234.738 196.104 233.73 196.908 232.926C197.712 232.122 198.72 231.72 199.932 231.72C201.132 231.72 202.134 232.122 202.938 232.926C203.754 233.742 204.162 234.75 204.162 235.95C204.162 237.15 203.754 238.158 202.938 238.974C202.134 239.778 201.132 240.18 199.932 240.18ZM199.932 233.052C199.116 233.052 198.438 233.328 197.898 233.88C197.358 234.432 197.088 235.122 197.088 235.95C197.088 236.778 197.358 237.468 197.898 238.02C198.438 238.572 199.116 238.848 199.932 238.848C200.748 238.848 201.426 238.572 201.966 238.02C202.506 237.468 202.776 236.778 202.776 235.95C202.776 235.122 202.506 234.432 201.966 233.88C201.426 233.328 200.748 233.052 199.932 233.052ZM207.998 240V233.178H204.974V231.9H212.336V233.178H209.312V240H207.998ZM217.791 227.85H225.783V229.218L221.427 240H219.915L224.307 229.146H217.791V227.85ZM231.611 240.18C230.651 240.18 229.793 239.94 229.037 239.46C228.281 238.98 227.723 238.338 227.363 237.534L228.749 237.138C229.001 237.654 229.379 238.068 229.883 238.38C230.399 238.68 230.975 238.83 231.611 238.83C232.463 238.83 233.183 238.584 233.771 238.092C234.359 237.588 234.653 236.964 234.653 236.22C234.653 235.452 234.347 234.816 233.735 234.312C233.135 233.796 232.379 233.538 231.467 233.538H228.245L228.821 227.85H235.139V229.146H230.009L229.685 232.242H231.521C232.829 232.242 233.921 232.62 234.797 233.376C235.673 234.132 236.111 235.074 236.111 236.202C236.111 237.318 235.679 238.266 234.815 239.046C233.951 239.802 232.883 240.18 231.611 240.18ZM238.091 235.896V231.954C238.091 230.73 238.529 229.716 239.405 228.912C240.293 228.084 241.379 227.67 242.663 227.67C243.959 227.67 245.039 228.084 245.903 228.912C246.779 229.716 247.217 230.73 247.217 231.954V235.896C247.217 237.12 246.785 238.14 245.921 238.956C245.045 239.772 243.959 240.18 242.663 240.18C241.379 240.18 240.293 239.772 239.405 238.956C238.529 238.152 238.091 237.132 238.091 235.896ZM239.495 231.936V235.914C239.495 236.742 239.801 237.438 240.413 238.002C241.013 238.554 241.763 238.83 242.663 238.83C243.563 238.83 244.307 238.554 244.895 238.002C245.507 237.438 245.813 236.742 245.813 235.914V231.936C245.813 231.12 245.507 230.43 244.895 229.866C244.295 229.302 243.551 229.02 242.663 229.02C241.787 229.02 241.037 229.302 240.413 229.866C239.801 230.43 239.495 231.12 239.495 231.936ZM250.745 244.05H249.431V231.9H250.745V233.016C251.513 232.152 252.491 231.72 253.679 231.72C254.819 231.72 255.767 232.128 256.523 232.944C257.291 233.748 257.675 234.75 257.675 235.95C257.675 237.162 257.291 238.17 256.523 238.974C255.767 239.778 254.819 240.18 253.679 240.18C252.491 240.18 251.513 239.748 250.745 238.884V244.05ZM255.497 233.88C254.981 233.328 254.327 233.052 253.535 233.052C252.743 233.052 252.089 233.328 251.573 233.88C251.045 234.444 250.781 235.134 250.781 235.95C250.781 236.766 251.045 237.456 251.573 238.02C252.089 238.572 252.743 238.848 253.535 238.848C254.327 238.848 254.981 238.572 255.497 238.02C256.037 237.468 256.307 236.778 256.307 235.95C256.307 235.122 256.037 234.432 255.497 233.88ZM263.763 237.93L265.095 237.588C265.431 238.464 266.157 238.902 267.273 238.902C267.909 238.902 268.431 238.77 268.839 238.506C269.259 238.23 269.469 237.894 269.469 237.498C269.469 237.174 269.349 236.91 269.109 236.706C268.869 236.49 268.569 236.382 268.209 236.382H266.229V235.266H268.119C268.455 235.266 268.737 235.17 268.965 234.978C269.193 234.786 269.307 234.552 269.307 234.276C269.307 233.904 269.115 233.598 268.731 233.358C268.359 233.118 267.885 232.998 267.309 232.998C266.193 232.998 265.473 233.436 265.149 234.312L263.817 233.97C264.069 233.262 264.507 232.71 265.131 232.314C265.767 231.918 266.517 231.72 267.381 231.72C268.317 231.72 269.103 231.948 269.739 232.404C270.363 232.848 270.675 233.412 270.675 234.096C270.675 234.804 270.339 235.368 269.667 235.788C270.447 236.22 270.837 236.844 270.837 237.66C270.837 238.368 270.501 238.968 269.829 239.46C269.169 239.94 268.329 240.18 267.309 240.18C266.433 240.18 265.683 239.982 265.059 239.586C264.435 239.19 264.003 238.638 263.763 237.93ZM276.233 231.72C277.421 231.72 278.399 232.152 279.167 233.016V231.9H280.481V240H279.167V238.884C278.399 239.748 277.421 240.18 276.233 240.18C275.093 240.18 274.139 239.778 273.371 238.974C272.615 238.17 272.237 237.162 272.237 235.95C272.237 234.762 272.615 233.76 273.371 232.944C274.151 232.128 275.105 231.72 276.233 231.72ZM278.339 233.88C277.823 233.328 277.169 233.052 276.377 233.052C275.585 233.052 274.931 233.328 274.415 233.88C273.887 234.444 273.623 235.134 273.623 235.95C273.623 236.766 273.887 237.456 274.415 238.02C274.931 238.572 275.585 238.848 276.377 238.848C277.169 238.848 277.823 238.572 278.339 238.02C278.867 237.456 279.131 236.766 279.131 235.95C279.131 235.134 278.867 234.444 278.339 233.88ZM290.35 229.65L287.866 230.982L287.254 229.74L290.782 227.85H291.754V240H290.35V229.65ZM301.089 234.42V240H299.757V231.9H301.089L304.167 237.264L307.227 231.9H308.559V240H307.227V234.456L304.563 239.064H303.753L301.089 234.42ZM313.711 228.93C313.711 228.618 313.579 228.348 313.315 228.12C313.051 227.892 312.739 227.778 312.379 227.778C311.707 227.778 311.221 228.144 310.921 228.876L310.057 228.444C310.261 227.964 310.573 227.586 310.993 227.31C311.413 227.022 311.875 226.878 312.379 226.878C313.015 226.878 313.561 227.076 314.017 227.472C314.461 227.868 314.683 228.342 314.683 228.894C314.683 229.53 314.215 230.28 313.279 231.144L311.605 232.746H314.773V233.628H310.165V232.962L312.667 230.55C313.363 229.89 313.711 229.35 313.711 228.93Z" fill="black"/>
<rect x="0.1" y="145.1" width="165.523" height="61.8" fill="#E1E1E1" fill-opacity="0.5" stroke="#B3B3B3" stroke-width="0.2"/>
<path d="M56.5135 167.098L53.6695 168.718L53.3455 168.106L56.7655 166.162H57.1795V178.312H56.5135V167.098ZM60.8773 174.208V170.266C60.8773 169.066 61.2973 168.064 62.1373 167.26C62.9773 166.456 64.0393 166.054 65.3233 166.054C66.5953 166.054 67.6513 166.456 68.4913 167.26C69.3433 168.076 69.7693 169.078 69.7693 170.266V174.208C69.7693 175.408 69.3433 176.416 68.4913 177.232C67.6513 178.036 66.5953 178.438 65.3233 178.438C64.0393 178.438 62.9773 178.036 62.1373 177.232C61.2973 176.428 60.8773 175.42 60.8773 174.208ZM61.5433 170.266V174.208C61.5433 175.216 61.9033 176.062 62.6233 176.746C63.3673 177.418 64.2673 177.754 65.3233 177.754C66.3793 177.754 67.2733 177.418 68.0053 176.746C68.7253 176.062 69.0853 175.216 69.0853 174.208V170.266C69.0853 169.246 68.7253 168.406 68.0053 167.746C67.2853 167.062 66.3913 166.72 65.3233 166.72C64.2673 166.72 63.3673 167.062 62.6233 167.746C61.9033 168.406 61.5433 169.246 61.5433 170.266ZM72.4438 174.208V170.266C72.4438 169.066 72.8638 168.064 73.7038 167.26C74.5438 166.456 75.6058 166.054 76.8898 166.054C78.1618 166.054 79.2178 166.456 80.0578 167.26C80.9098 168.076 81.3358 169.078 81.3358 170.266V174.208C81.3358 175.408 80.9098 176.416 80.0578 177.232C79.2178 178.036 78.1618 178.438 76.8898 178.438C75.6058 178.438 74.5438 178.036 73.7038 177.232C72.8638 176.428 72.4438 175.42 72.4438 174.208ZM73.1098 170.266V174.208C73.1098 175.216 73.4698 176.062 74.1898 176.746C74.9338 177.418 75.8338 177.754 76.8898 177.754C77.9458 177.754 78.8398 177.418 79.5718 176.746C80.2918 176.062 80.6518 175.216 80.6518 174.208V170.266C80.6518 169.246 80.2918 168.406 79.5718 167.746C78.8518 167.062 77.9578 166.72 76.8898 166.72C75.8338 166.72 74.9338 167.062 74.1898 167.746C73.4698 168.406 73.1098 169.246 73.1098 170.266ZM84.7302 171.49V178.312H84.0642V170.212H84.7302L88.2762 176.458L91.8222 170.212H92.4882V178.312H91.8222V171.526L88.4922 177.376H88.0782L84.7302 171.49ZM95.9802 171.49V178.312H95.3142V170.212H95.9802L99.5262 176.458L103.072 170.212H103.738V178.312H103.072V171.526L99.7422 177.376H99.3282L95.9802 171.49Z" fill="black"/>
<rect x="0.1" y="207.1" width="165.523" height="61.8" fill="#E1E1E1" fill-opacity="0.5" stroke="#B3B3B3" stroke-width="0.2"/>
<path d="M56.5135 229.098L53.6695 230.718L53.3455 230.106L56.7655 228.162H57.1795V240.312H56.5135V229.098ZM68.9233 236.568C68.9233 237.66 68.4973 238.578 67.6453 239.322C66.7933 240.066 65.7613 240.438 64.5493 240.438C63.6613 240.438 62.8633 240.234 62.1553 239.826C61.4473 239.418 60.9133 238.866 60.5533 238.17L61.2193 237.936C61.5313 238.5 61.9813 238.944 62.5693 239.268C63.1573 239.592 63.8173 239.754 64.5493 239.754C65.5813 239.754 66.4513 239.454 67.1593 238.854C67.8673 238.242 68.2213 237.486 68.2213 236.586C68.2213 235.662 67.8613 234.906 67.1413 234.318C66.4333 233.706 65.5573 233.4 64.5133 233.4H61.3993L61.9393 228.162H68.0233V228.81H62.5513L62.1373 232.752H64.5133C65.7613 232.752 66.8053 233.118 67.6453 233.85C68.4973 234.594 68.9233 235.5 68.9233 236.568ZM71.3891 236.208V232.266C71.3891 231.066 71.8091 230.064 72.6491 229.26C73.4891 228.456 74.5511 228.054 75.8351 228.054C77.1071 228.054 78.1631 228.456 79.0031 229.26C79.8551 230.076 80.2811 231.078 80.2811 232.266V236.208C80.2811 237.408 79.8551 238.416 79.0031 239.232C78.1631 240.036 77.1071 240.438 75.8351 240.438C74.5511 240.438 73.4891 240.036 72.6491 239.232C71.8091 238.428 71.3891 237.42 71.3891 236.208ZM72.0551 232.266V236.208C72.0551 237.216 72.4151 238.062 73.1351 238.746C73.8791 239.418 74.7791 239.754 75.8351 239.754C76.8911 239.754 77.7851 239.418 78.5171 238.746C79.2371 238.062 79.5971 237.216 79.5971 236.208V232.266C79.5971 231.246 79.2371 230.406 78.5171 229.746C77.7971 229.062 76.9031 228.72 75.8351 228.72C74.7791 228.72 73.8791 229.062 73.1351 229.746C72.4151 230.406 72.0551 231.246 72.0551 232.266ZM83.6755 233.49V240.312H83.0095V232.212H83.6755L87.2215 238.458L90.7675 232.212H91.4335V240.312H90.7675V233.526L87.4375 239.376H87.0235L83.6755 233.49ZM94.9255 233.49V240.312H94.2595V232.212H94.9255L98.4715 238.458L102.017 232.212H102.683V240.312H102.017V233.526L98.6875 239.376H98.2735L94.9255 233.49Z" fill="black"/>
<rect x="165.823" y="352.1" width="179.077" height="61.8" fill="#E1E1E1" fill-opacity="0.5" stroke="#B3B3B3" stroke-width="0.2"/>
<path d="M198.932 385.18C197.72 385.18 196.712 384.778 195.908 383.974C195.104 383.17 194.702 382.162 194.702 380.95C194.702 379.738 195.104 378.73 195.908 377.926C196.712 377.122 197.72 376.72 198.932 376.72C200.132 376.72 201.134 377.122 201.938 377.926C202.754 378.742 203.162 379.75 203.162 380.95C203.162 382.15 202.754 383.158 201.938 383.974C201.134 384.778 200.132 385.18 198.932 385.18ZM198.932 378.052C198.116 378.052 197.438 378.328 196.898 378.88C196.358 379.432 196.088 380.122 196.088 380.95C196.088 381.778 196.358 382.468 196.898 383.02C197.438 383.572 198.116 383.848 198.932 383.848C199.748 383.848 200.426 383.572 200.966 383.02C201.506 382.468 201.776 381.778 201.776 380.95C201.776 380.122 201.506 379.432 200.966 378.88C200.426 378.328 199.748 378.052 198.932 378.052ZM206.998 385V378.178H203.974V376.9H211.336V378.178H208.312V385H206.998ZM225.971 374.776L224.675 375.424C224.411 374.992 224.039 374.65 223.559 374.398C223.091 374.146 222.569 374.02 221.993 374.02C221.093 374.02 220.343 374.302 219.743 374.866C219.143 375.43 218.843 376.12 218.843 376.936V378.556C219.587 377.704 220.595 377.278 221.867 377.278C223.115 377.278 224.159 377.662 224.999 378.43C225.851 379.186 226.277 380.128 226.277 381.256C226.277 382.36 225.851 383.29 224.999 384.046C224.147 384.802 223.103 385.18 221.867 385.18C220.607 385.18 219.557 384.802 218.717 384.046C217.877 383.29 217.457 382.348 217.457 381.22V376.954C217.457 375.742 217.889 374.728 218.753 373.912C219.641 373.084 220.727 372.67 222.011 372.67C222.863 372.67 223.637 372.856 224.333 373.228C225.029 373.6 225.575 374.116 225.971 374.776ZM221.867 378.628C221.027 378.628 220.319 378.88 219.743 379.384C219.179 379.876 218.897 380.488 218.897 381.22C218.897 381.952 219.179 382.57 219.743 383.074C220.319 383.578 221.027 383.83 221.867 383.83C222.695 383.83 223.391 383.584 223.955 383.092C224.531 382.588 224.819 381.976 224.819 381.256C224.819 380.512 224.531 379.888 223.955 379.384C223.391 378.88 222.695 378.628 221.867 378.628ZM228.018 382.984L229.314 382.336C229.578 382.804 229.956 383.17 230.448 383.434C230.952 383.698 231.51 383.83 232.122 383.83C233.046 383.83 233.808 383.554 234.408 383.002C235.032 382.45 235.344 381.76 235.344 380.932V379.348C234.624 380.308 233.634 380.788 232.374 380.788C231.15 380.788 230.112 380.398 229.26 379.618C228.42 378.85 228 377.884 228 376.72C228 375.568 228.414 374.608 229.242 373.84C230.094 373.06 231.138 372.67 232.374 372.67C233.61 372.67 234.648 373.054 235.488 373.822C236.328 374.578 236.748 375.52 236.748 376.648V380.914C236.748 382.126 236.304 383.14 235.416 383.956C234.528 384.772 233.43 385.18 232.122 385.18C231.234 385.18 230.424 384.988 229.692 384.604C228.96 384.208 228.402 383.668 228.018 382.984ZM230.286 378.646C230.85 379.174 231.546 379.438 232.374 379.438C233.202 379.438 233.892 379.18 234.444 378.664C235.008 378.136 235.29 377.494 235.29 376.738C235.29 375.982 235.008 375.34 234.444 374.812C233.88 374.284 233.19 374.02 232.374 374.02C231.534 374.02 230.838 374.278 230.286 374.794C229.722 375.322 229.44 375.958 229.44 376.702C229.44 377.47 229.722 378.118 230.286 378.646ZM238.814 380.896V376.954C238.814 375.73 239.252 374.716 240.128 373.912C241.016 373.084 242.102 372.67 243.386 372.67C244.682 372.67 245.762 373.084 246.626 373.912C247.502 374.716 247.94 375.73 247.94 376.954V380.896C247.94 382.12 247.508 383.14 246.644 383.956C245.768 384.772 244.682 385.18 243.386 385.18C242.102 385.18 241.016 384.772 240.128 383.956C239.252 383.152 238.814 382.132 238.814 380.896ZM240.218 376.936V380.914C240.218 381.742 240.524 382.438 241.136 383.002C241.736 383.554 242.486 383.83 243.386 383.83C244.286 383.83 245.03 383.554 245.618 383.002C246.23 382.438 246.536 381.742 246.536 380.914V376.936C246.536 376.12 246.23 375.43 245.618 374.866C245.018 374.302 244.274 374.02 243.386 374.02C242.51 374.02 241.76 374.302 241.136 374.866C240.524 375.43 240.218 376.12 240.218 376.936ZM251.468 389.05H250.154V376.9H251.468V378.016C252.236 377.152 253.214 376.72 254.402 376.72C255.542 376.72 256.49 377.128 257.246 377.944C258.014 378.748 258.398 379.75 258.398 380.95C258.398 382.162 258.014 383.17 257.246 383.974C256.49 384.778 255.542 385.18 254.402 385.18C253.214 385.18 252.236 384.748 251.468 383.884V389.05ZM256.22 378.88C255.704 378.328 255.05 378.052 254.258 378.052C253.466 378.052 252.812 378.328 252.296 378.88C251.768 379.444 251.504 380.134 251.504 380.95C251.504 381.766 251.768 382.456 252.296 383.02C252.812 383.572 253.466 383.848 254.258 383.848C255.05 383.848 255.704 383.572 256.22 383.02C256.76 382.468 257.03 381.778 257.03 380.95C257.03 380.122 256.76 379.432 256.22 378.88ZM264.486 382.93L265.818 382.588C266.154 383.464 266.88 383.902 267.996 383.902C268.632 383.902 269.154 383.77 269.562 383.506C269.982 383.23 270.192 382.894 270.192 382.498C270.192 382.174 270.072 381.91 269.832 381.706C269.592 381.49 269.292 381.382 268.932 381.382H266.952V380.266H268.842C269.178 380.266 269.46 380.17 269.688 379.978C269.916 379.786 270.03 379.552 270.03 379.276C270.03 378.904 269.838 378.598 269.454 378.358C269.082 378.118 268.608 377.998 268.032 377.998C266.916 377.998 266.196 378.436 265.872 379.312L264.54 378.97C264.792 378.262 265.23 377.71 265.854 377.314C266.49 376.918 267.24 376.72 268.104 376.72C269.04 376.72 269.826 376.948 270.462 377.404C271.086 377.848 271.398 378.412 271.398 379.096C271.398 379.804 271.062 380.368 270.39 380.788C271.17 381.22 271.56 381.844 271.56 382.66C271.56 383.368 271.224 383.968 270.552 384.46C269.892 384.94 269.052 385.18 268.032 385.18C267.156 385.18 266.406 384.982 265.782 384.586C265.158 384.19 264.726 383.638 264.486 382.93ZM276.956 376.72C278.144 376.72 279.122 377.152 279.89 378.016V376.9H281.204V385H279.89V383.884C279.122 384.748 278.144 385.18 276.956 385.18C275.816 385.18 274.862 384.778 274.094 383.974C273.338 383.17 272.96 382.162 272.96 380.95C272.96 379.762 273.338 378.76 274.094 377.944C274.874 377.128 275.828 376.72 276.956 376.72ZM279.062 378.88C278.546 378.328 277.892 378.052 277.1 378.052C276.308 378.052 275.654 378.328 275.138 378.88C274.61 379.444 274.346 380.134 274.346 380.95C274.346 381.766 274.61 382.456 275.138 383.02C275.654 383.572 276.308 383.848 277.1 383.848C277.892 383.848 278.546 383.572 279.062 383.02C279.59 382.456 279.854 381.766 279.854 380.95C279.854 380.134 279.59 379.444 279.062 378.88ZM291.072 374.65L288.588 375.982L287.976 374.74L291.504 372.85H292.476V385H291.072V374.65ZM301.812 379.42V385H300.48V376.9H301.812L304.89 382.264L307.95 376.9H309.282V385H307.95V379.456L305.286 384.064H304.476L301.812 379.42ZM314.434 373.93C314.434 373.618 314.302 373.348 314.038 373.12C313.774 372.892 313.462 372.778 313.102 372.778C312.43 372.778 311.944 373.144 311.644 373.876L310.78 373.444C310.984 372.964 311.296 372.586 311.716 372.31C312.136 372.022 312.598 371.878 313.102 371.878C313.738 371.878 314.284 372.076 314.74 372.472C315.184 372.868 315.406 373.342 315.406 373.894C315.406 374.53 314.938 375.28 314.002 376.144L312.328 377.746H315.496V378.628H310.888V377.962L313.39 375.55C314.086 374.89 314.434 374.35 314.434 373.93Z" fill="black"/>
<rect x="165.823" y="414.1" width="179.077" height="61.8" fill="#E1E1E1" fill-opacity="0.5" stroke="#B3B3B3" stroke-width="0.2"/>
<path d="M198.932 447.18C197.72 447.18 196.712 446.778 195.908 445.974C195.104 445.17 194.702 444.162 194.702 442.95C194.702 441.738 195.104 440.73 195.908 439.926C196.712 439.122 197.72 438.72 198.932 438.72C200.132 438.72 201.134 439.122 201.938 439.926C202.754 440.742 203.162 441.75 203.162 442.95C203.162 444.15 202.754 445.158 201.938 445.974C201.134 446.778 200.132 447.18 198.932 447.18ZM198.932 440.052C198.116 440.052 197.438 440.328 196.898 440.88C196.358 441.432 196.088 442.122 196.088 442.95C196.088 443.778 196.358 444.468 196.898 445.02C197.438 445.572 198.116 445.848 198.932 445.848C199.748 445.848 200.426 445.572 200.966 445.02C201.506 444.468 201.776 443.778 201.776 442.95C201.776 442.122 201.506 441.432 200.966 440.88C200.426 440.328 199.748 440.052 198.932 440.052ZM206.998 447V440.178H203.974V438.9H211.336V440.178H208.312V447H206.998ZM221.687 447.18C220.427 447.18 219.377 446.85 218.537 446.19C217.709 445.53 217.295 444.696 217.295 443.688C217.295 443.028 217.481 442.434 217.853 441.906C218.237 441.378 218.765 440.964 219.437 440.664C218.861 440.376 218.411 439.992 218.087 439.512C217.775 439.02 217.619 438.486 217.619 437.91C217.619 436.986 218.003 436.218 218.771 435.606C219.539 434.982 220.511 434.67 221.687 434.67C222.839 434.67 223.799 434.982 224.567 435.606C225.347 436.218 225.737 436.986 225.737 437.91C225.737 438.486 225.575 439.02 225.251 439.512C224.939 439.992 224.495 440.376 223.919 440.664C224.591 440.964 225.119 441.384 225.503 441.924C225.887 442.452 226.079 443.046 226.079 443.706C226.079 444.702 225.659 445.53 224.819 446.19C223.979 446.85 222.935 447.18 221.687 447.18ZM219.581 441.996C219.029 442.404 218.753 442.932 218.753 443.58C218.753 444.216 219.029 444.75 219.581 445.182C220.133 445.614 220.835 445.83 221.687 445.83C222.515 445.83 223.211 445.614 223.775 445.182C224.339 444.75 224.621 444.216 224.621 443.58C224.621 442.944 224.339 442.416 223.775 441.996C223.223 441.564 222.527 441.348 221.687 441.348C220.835 441.348 220.133 441.564 219.581 441.996ZM219.077 438.018C219.077 438.594 219.323 439.074 219.815 439.458C220.331 439.842 220.955 440.034 221.687 440.034C222.431 440.034 223.049 439.842 223.541 439.458C224.045 439.086 224.297 438.606 224.297 438.018C224.297 437.454 224.045 436.98 223.541 436.596C223.049 436.212 222.431 436.02 221.687 436.02C220.955 436.02 220.331 436.212 219.815 436.596C219.323 436.98 219.077 437.454 219.077 438.018ZM227.93 444.984L229.226 444.336C229.49 444.804 229.868 445.17 230.36 445.434C230.864 445.698 231.422 445.83 232.034 445.83C232.958 445.83 233.72 445.554 234.32 445.002C234.944 444.45 235.256 443.76 235.256 442.932V441.348C234.536 442.308 233.546 442.788 232.286 442.788C231.062 442.788 230.024 442.398 229.172 441.618C228.332 440.85 227.912 439.884 227.912 438.72C227.912 437.568 228.326 436.608 229.154 435.84C230.006 435.06 231.05 434.67 232.286 434.67C233.522 434.67 234.56 435.054 235.4 435.822C236.24 436.578 236.66 437.52 236.66 438.648V442.914C236.66 444.126 236.216 445.14 235.328 445.956C234.44 446.772 233.342 447.18 232.034 447.18C231.146 447.18 230.336 446.988 229.604 446.604C228.872 446.208 228.314 445.668 227.93 444.984ZM230.198 440.646C230.762 441.174 231.458 441.438 232.286 441.438C233.114 441.438 233.804 441.18 234.356 440.664C234.92 440.136 235.202 439.494 235.202 438.738C235.202 437.982 234.92 437.34 234.356 436.812C233.792 436.284 233.102 436.02 232.286 436.02C231.446 436.02 230.75 436.278 230.198 436.794C229.634 437.322 229.352 437.958 229.352 438.702C229.352 439.47 229.634 440.118 230.198 440.646ZM238.726 442.896V438.954C238.726 437.73 239.164 436.716 240.04 435.912C240.928 435.084 242.014 434.67 243.298 434.67C244.594 434.67 245.674 435.084 246.538 435.912C247.414 436.716 247.852 437.73 247.852 438.954V442.896C247.852 444.12 247.42 445.14 246.556 445.956C245.68 446.772 244.594 447.18 243.298 447.18C242.014 447.18 240.928 446.772 240.04 445.956C239.164 445.152 238.726 444.132 238.726 442.896ZM240.13 438.936V442.914C240.13 443.742 240.436 444.438 241.048 445.002C241.648 445.554 242.398 445.83 243.298 445.83C244.198 445.83 244.942 445.554 245.53 445.002C246.142 444.438 246.448 443.742 246.448 442.914V438.936C246.448 438.12 246.142 437.43 245.53 436.866C244.93 436.302 244.186 436.02 243.298 436.02C242.422 436.02 241.672 436.302 241.048 436.866C240.436 437.43 240.13 438.12 240.13 438.936ZM251.38 451.05H250.066V438.9H251.38V440.016C252.148 439.152 253.126 438.72 254.314 438.72C255.454 438.72 256.402 439.128 257.158 439.944C257.926 440.748 258.31 441.75 258.31 442.95C258.31 444.162 257.926 445.17 257.158 445.974C256.402 446.778 255.454 447.18 254.314 447.18C253.126 447.18 252.148 446.748 251.38 445.884V451.05ZM256.132 440.88C255.616 440.328 254.962 440.052 254.17 440.052C253.378 440.052 252.724 440.328 252.208 440.88C251.68 441.444 251.416 442.134 251.416 442.95C251.416 443.766 251.68 444.456 252.208 445.02C252.724 445.572 253.378 445.848 254.17 445.848C254.962 445.848 255.616 445.572 256.132 445.02C256.672 444.468 256.942 443.778 256.942 442.95C256.942 442.122 256.672 441.432 256.132 440.88ZM264.398 444.93L265.73 444.588C266.066 445.464 266.792 445.902 267.908 445.902C268.544 445.902 269.066 445.77 269.474 445.506C269.894 445.23 270.104 444.894 270.104 444.498C270.104 444.174 269.984 443.91 269.744 443.706C269.504 443.49 269.204 443.382 268.844 443.382H266.864V442.266H268.754C269.09 442.266 269.372 442.17 269.6 441.978C269.828 441.786 269.942 441.552 269.942 441.276C269.942 440.904 269.75 440.598 269.366 440.358C268.994 440.118 268.52 439.998 267.944 439.998C266.828 439.998 266.108 440.436 265.784 441.312L264.452 440.97C264.704 440.262 265.142 439.71 265.766 439.314C266.402 438.918 267.152 438.72 268.016 438.72C268.952 438.72 269.738 438.948 270.374 439.404C270.998 439.848 271.31 440.412 271.31 441.096C271.31 441.804 270.974 442.368 270.302 442.788C271.082 443.22 271.472 443.844 271.472 444.66C271.472 445.368 271.136 445.968 270.464 446.46C269.804 446.94 268.964 447.18 267.944 447.18C267.068 447.18 266.318 446.982 265.694 446.586C265.07 446.19 264.638 445.638 264.398 444.93ZM276.868 438.72C278.056 438.72 279.034 439.152 279.802 440.016V438.9H281.116V447H279.802V445.884C279.034 446.748 278.056 447.18 276.868 447.18C275.728 447.18 274.774 446.778 274.006 445.974C273.25 445.17 272.872 444.162 272.872 442.95C272.872 441.762 273.25 440.76 274.006 439.944C274.786 439.128 275.74 438.72 276.868 438.72ZM278.974 440.88C278.458 440.328 277.804 440.052 277.012 440.052C276.22 440.052 275.566 440.328 275.05 440.88C274.522 441.444 274.258 442.134 274.258 442.95C274.258 443.766 274.522 444.456 275.05 445.02C275.566 445.572 276.22 445.848 277.012 445.848C277.804 445.848 278.458 445.572 278.974 445.02C279.502 444.456 279.766 443.766 279.766 442.95C279.766 442.134 279.502 441.444 278.974 440.88ZM290.984 436.65L288.5 437.982L287.888 436.74L291.416 434.85H292.388V447H290.984V436.65ZM301.724 441.42V447H300.392V438.9H301.724L304.802 444.264L307.862 438.9H309.194V447H307.862V441.456L305.198 446.064H304.388L301.724 441.42ZM314.346 435.93C314.346 435.618 314.214 435.348 313.95 435.12C313.686 434.892 313.374 434.778 313.014 434.778C312.342 434.778 311.856 435.144 311.556 435.876L310.692 435.444C310.896 434.964 311.208 434.586 311.628 434.31C312.048 434.022 312.51 433.878 313.014 433.878C313.65 433.878 314.196 434.076 314.652 434.472C315.096 434.868 315.318 435.342 315.318 435.894C315.318 436.53 314.85 437.28 313.914 438.144L312.24 439.746H315.408V440.628H310.8V439.962L313.302 437.55C313.998 436.89 314.346 436.35 314.346 435.93Z" fill="black"/>
<path d="M165.823 476.1H344.9V528C344.9 533.468 340.468 537.9 335 537.9H165.823V476.1Z" fill="#E1E1E1" fill-opacity="0.5" stroke="#B3B3B3" stroke-width="0.2"/>
<path d="M194.932 509.18C193.72 509.18 192.712 508.778 191.908 507.974C191.104 507.17 190.702 506.162 190.702 504.95C190.702 503.738 191.104 502.73 191.908 501.926C192.712 501.122 193.72 500.72 194.932 500.72C196.132 500.72 197.134 501.122 197.938 501.926C198.754 502.742 199.162 503.75 199.162 504.95C199.162 506.15 198.754 507.158 197.938 507.974C197.134 508.778 196.132 509.18 194.932 509.18ZM194.932 502.052C194.116 502.052 193.438 502.328 192.898 502.88C192.358 503.432 192.088 504.122 192.088 504.95C192.088 505.778 192.358 506.468 192.898 507.02C193.438 507.572 194.116 507.848 194.932 507.848C195.748 507.848 196.426 507.572 196.966 507.02C197.506 506.468 197.776 505.778 197.776 504.95C197.776 504.122 197.506 503.432 196.966 502.88C196.426 502.328 195.748 502.052 194.932 502.052ZM202.998 509V502.178H199.974V500.9H207.336V502.178H204.312V509H202.998ZM216.373 498.65L213.889 499.982L213.277 498.74L216.805 496.85H217.777V509H216.373V498.65ZM220.962 504.896V500.954C220.962 499.73 221.4 498.716 222.276 497.912C223.164 497.084 224.25 496.67 225.534 496.67C226.83 496.67 227.91 497.084 228.774 497.912C229.65 498.716 230.088 499.73 230.088 500.954V504.896C230.088 506.12 229.656 507.14 228.792 507.956C227.916 508.772 226.83 509.18 225.534 509.18C224.25 509.18 223.164 508.772 222.276 507.956C221.4 507.152 220.962 506.132 220.962 504.896ZM222.366 500.936V504.914C222.366 505.742 222.672 506.438 223.284 507.002C223.884 507.554 224.634 507.83 225.534 507.83C226.434 507.83 227.178 507.554 227.766 507.002C228.378 506.438 228.684 505.742 228.684 504.914V500.936C228.684 500.12 228.378 499.43 227.766 498.866C227.166 498.302 226.422 498.02 225.534 498.02C224.658 498.02 223.908 498.302 223.284 498.866C222.672 499.43 222.366 500.12 222.366 500.936ZM232.104 506.984L233.4 506.336C233.664 506.804 234.042 507.17 234.534 507.434C235.038 507.698 235.596 507.83 236.208 507.83C237.132 507.83 237.894 507.554 238.494 507.002C239.118 506.45 239.43 505.76 239.43 504.932V503.348C238.71 504.308 237.72 504.788 236.46 504.788C235.236 504.788 234.198 504.398 233.346 503.618C232.506 502.85 232.086 501.884 232.086 500.72C232.086 499.568 232.5 498.608 233.328 497.84C234.18 497.06 235.224 496.67 236.46 496.67C237.696 496.67 238.734 497.054 239.574 497.822C240.414 498.578 240.834 499.52 240.834 500.648V504.914C240.834 506.126 240.39 507.14 239.502 507.956C238.614 508.772 237.516 509.18 236.208 509.18C235.32 509.18 234.51 508.988 233.778 508.604C233.046 508.208 232.488 507.668 232.104 506.984ZM234.372 502.646C234.936 503.174 235.632 503.438 236.46 503.438C237.288 503.438 237.978 503.18 238.53 502.664C239.094 502.136 239.376 501.494 239.376 500.738C239.376 499.982 239.094 499.34 238.53 498.812C237.966 498.284 237.276 498.02 236.46 498.02C235.62 498.02 234.924 498.278 234.372 498.794C233.808 499.322 233.526 499.958 233.526 500.702C233.526 501.47 233.808 502.118 234.372 502.646ZM242.774 506.984L244.07 506.336C244.334 506.804 244.712 507.17 245.204 507.434C245.708 507.698 246.266 507.83 246.878 507.83C247.802 507.83 248.564 507.554 249.164 507.002C249.788 506.45 250.1 505.76 250.1 504.932V503.348C249.38 504.308 248.39 504.788 247.13 504.788C245.906 504.788 244.868 504.398 244.016 503.618C243.176 502.85 242.756 501.884 242.756 500.72C242.756 499.568 243.17 498.608 243.998 497.84C244.85 497.06 245.894 496.67 247.13 496.67C248.366 496.67 249.404 497.054 250.244 497.822C251.084 498.578 251.504 499.52 251.504 500.648V504.914C251.504 506.126 251.06 507.14 250.172 507.956C249.284 508.772 248.186 509.18 246.878 509.18C245.99 509.18 245.18 508.988 244.448 508.604C243.716 508.208 243.158 507.668 242.774 506.984ZM245.042 502.646C245.606 503.174 246.302 503.438 247.13 503.438C247.958 503.438 248.648 503.18 249.2 502.664C249.764 502.136 250.046 501.494 250.046 500.738C250.046 499.982 249.764 499.34 249.2 498.812C248.636 498.284 247.946 498.02 247.13 498.02C246.29 498.02 245.594 498.278 245.042 498.794C244.478 499.322 244.196 499.958 244.196 500.702C244.196 501.47 244.478 502.118 245.042 502.646ZM254.956 513.05H253.642V500.9H254.956V502.016C255.724 501.152 256.702 500.72 257.89 500.72C259.03 500.72 259.978 501.128 260.734 501.944C261.502 502.748 261.886 503.75 261.886 504.95C261.886 506.162 261.502 507.17 260.734 507.974C259.978 508.778 259.03 509.18 257.89 509.18C256.702 509.18 255.724 508.748 254.956 507.884V513.05ZM259.708 502.88C259.192 502.328 258.538 502.052 257.746 502.052C256.954 502.052 256.3 502.328 255.784 502.88C255.256 503.444 254.992 504.134 254.992 504.95C254.992 505.766 255.256 506.456 255.784 507.02C256.3 507.572 256.954 507.848 257.746 507.848C258.538 507.848 259.192 507.572 259.708 507.02C260.248 506.468 260.518 505.778 260.518 504.95C260.518 504.122 260.248 503.432 259.708 502.88ZM267.974 506.93L269.306 506.588C269.642 507.464 270.368 507.902 271.484 507.902C272.12 507.902 272.642 507.77 273.05 507.506C273.47 507.23 273.68 506.894 273.68 506.498C273.68 506.174 273.56 505.91 273.32 505.706C273.08 505.49 272.78 505.382 272.42 505.382H270.44V504.266H272.33C272.666 504.266 272.948 504.17 273.176 503.978C273.404 503.786 273.518 503.552 273.518 503.276C273.518 502.904 273.326 502.598 272.942 502.358C272.57 502.118 272.096 501.998 271.52 501.998C270.404 501.998 269.684 502.436 269.36 503.312L268.028 502.97C268.28 502.262 268.718 501.71 269.342 501.314C269.978 500.918 270.728 500.72 271.592 500.72C272.528 500.72 273.314 500.948 273.95 501.404C274.574 501.848 274.886 502.412 274.886 503.096C274.886 503.804 274.55 504.368 273.878 504.788C274.658 505.22 275.048 505.844 275.048 506.66C275.048 507.368 274.712 507.968 274.04 508.46C273.38 508.94 272.54 509.18 271.52 509.18C270.644 509.18 269.894 508.982 269.27 508.586C268.646 508.19 268.214 507.638 267.974 506.93ZM280.444 500.72C281.632 500.72 282.61 501.152 283.378 502.016V500.9H284.692V509H283.378V507.884C282.61 508.748 281.632 509.18 280.444 509.18C279.304 509.18 278.35 508.778 277.582 507.974C276.826 507.17 276.448 506.162 276.448 504.95C276.448 503.762 276.826 502.76 277.582 501.944C278.362 501.128 279.316 500.72 280.444 500.72ZM282.55 502.88C282.034 502.328 281.38 502.052 280.588 502.052C279.796 502.052 279.142 502.328 278.626 502.88C278.098 503.444 277.834 504.134 277.834 504.95C277.834 505.766 278.098 506.456 278.626 507.02C279.142 507.572 279.796 507.848 280.588 507.848C281.38 507.848 282.034 507.572 282.55 507.02C283.078 506.456 283.342 505.766 283.342 504.95C283.342 504.134 283.078 503.444 282.55 502.88ZM294.56 498.65L292.076 499.982L291.464 498.74L294.992 496.85H295.964V509H294.56V498.65ZM305.3 503.42V509H303.968V500.9H305.3L308.378 506.264L311.438 500.9H312.77V509H311.438V503.456L308.774 508.064H307.964L305.3 503.42ZM317.922 497.93C317.922 497.618 317.79 497.348 317.526 497.12C317.262 496.892 316.95 496.778 316.59 496.778C315.918 496.778 315.432 497.144 315.132 497.876L314.268 497.444C314.472 496.964 314.784 496.586 315.204 496.31C315.624 496.022 316.086 495.878 316.59 495.878C317.226 495.878 317.772 496.076 318.228 496.472C318.672 496.868 318.894 497.342 318.894 497.894C318.894 498.53 318.426 499.28 317.49 500.144L315.816 501.746H318.984V502.628H314.376V501.962L316.878 499.55C317.574 498.89 317.922 498.35 317.922 497.93Z" fill="black"/>
<rect x="0.1" y="352.1" width="165.523" height="61.8" fill="#E1E1E1" fill-opacity="0.5" stroke="#B3B3B3" stroke-width="0.2"/>
<path d="M61.7515 381.568C61.7515 382.66 61.3255 383.578 60.4735 384.322C59.6215 385.066 58.5895 385.438 57.3775 385.438C56.4895 385.438 55.6915 385.234 54.9835 384.826C54.2755 384.418 53.7415 383.866 53.3815 383.17L54.0475 382.936C54.3595 383.5 54.8095 383.944 55.3975 384.268C55.9855 384.592 56.6455 384.754 57.3775 384.754C58.4095 384.754 59.2795 384.454 59.9875 383.854C60.6955 383.242 61.0495 382.486 61.0495 381.586C61.0495 380.662 60.6895 379.906 59.9695 379.318C59.2615 378.706 58.3855 378.4 57.3415 378.4H54.2275L54.7675 373.162H60.8515V373.81H55.3795L54.9655 377.752H57.3415C58.5895 377.752 59.6335 378.118 60.4735 378.85C61.3255 379.594 61.7515 380.5 61.7515 381.568ZM64.2172 381.208V377.266C64.2172 376.066 64.6372 375.064 65.4772 374.26C66.3172 373.456 67.3792 373.054 68.6632 373.054C69.9352 373.054 70.9912 373.456 71.8312 374.26C72.6832 375.076 73.1092 376.078 73.1092 377.266V381.208C73.1092 382.408 72.6832 383.416 71.8312 384.232C70.9912 385.036 69.9352 385.438 68.6632 385.438C67.3792 385.438 66.3172 385.036 65.4772 384.232C64.6372 383.428 64.2172 382.42 64.2172 381.208ZM64.8832 377.266V381.208C64.8832 382.216 65.2432 383.062 65.9632 383.746C66.7072 384.418 67.6072 384.754 68.6632 384.754C69.7192 384.754 70.6132 384.418 71.3452 383.746C72.0652 383.062 72.4252 382.216 72.4252 381.208V377.266C72.4252 376.246 72.0652 375.406 71.3452 374.746C70.6252 374.062 69.7312 373.72 68.6632 373.72C67.6072 373.72 66.7072 374.062 65.9632 374.746C65.2432 375.406 64.8832 376.246 64.8832 377.266ZM76.5036 378.49V385.312H75.8376V377.212H76.5036L80.0496 383.458L83.5956 377.212H84.2616V385.312H83.5956V378.526L80.2656 384.376H79.8516L76.5036 378.49ZM87.7536 378.49V385.312H87.0876V377.212H87.7536L91.2996 383.458L94.8456 377.212H95.5116V385.312H94.8456V378.526L91.5156 384.376H91.1016L87.7536 378.49Z" fill="black"/>
<rect x="0.1" y="414.1" width="165.523" height="61.8" fill="#E1E1E1" fill-opacity="0.5" stroke="#B3B3B3" stroke-width="0.2"/>
<path d="M55.3255 447.312L59.6815 435.81H52.8415V435.162H60.4015V435.828L56.0635 447.312H55.3255ZM70.8569 443.568C70.8569 444.66 70.4309 445.578 69.5789 446.322C68.7269 447.066 67.6949 447.438 66.4829 447.438C65.5949 447.438 64.7969 447.234 64.0889 446.826C63.3809 446.418 62.8469 445.866 62.4869 445.17L63.1529 444.936C63.4649 445.5 63.9149 445.944 64.5029 446.268C65.0909 446.592 65.7509 446.754 66.4829 446.754C67.5149 446.754 68.3849 446.454 69.0929 445.854C69.8009 445.242 70.1549 444.486 70.1549 443.586C70.1549 442.662 69.7949 441.906 69.0749 441.318C68.3669 440.706 67.4909 440.4 66.4469 440.4H63.3329L63.8729 435.162H69.9569V435.81H64.4849L64.0709 439.752H66.4469C67.6949 439.752 68.7389 440.118 69.5789 440.85C70.4309 441.594 70.8569 442.5 70.8569 443.568ZM74.0427 440.49V447.312H73.3767V439.212H74.0427L77.5887 445.458L81.1347 439.212H81.8007V447.312H81.1347V440.526L77.8047 446.376H77.3907L74.0427 440.49ZM85.2927 440.49V447.312H84.6267V439.212H85.2927L88.8387 445.458L92.3847 439.212H93.0507V447.312H92.3847V440.526L89.0547 446.376H88.6407L85.2927 440.49Z" fill="black"/>
<path d="M0.1 476.1H165.623V537.9H10C4.53238 537.9 0.1 533.468 0.1 528V476.1Z" fill="#E1E1E1" fill-opacity="0.5" stroke="#B3B3B3" stroke-width="0.2"/>
<path d="M56.5135 498.098L53.6695 499.718L53.3455 499.106L56.7655 497.162H57.1795V509.312H56.5135V498.098ZM60.8773 505.208V501.266C60.8773 500.066 61.2973 499.064 62.1373 498.26C62.9773 497.456 64.0393 497.054 65.3233 497.054C66.5953 497.054 67.6513 497.456 68.4913 498.26C69.3433 499.076 69.7693 500.078 69.7693 501.266V505.208C69.7693 506.408 69.3433 507.416 68.4913 508.232C67.6513 509.036 66.5953 509.438 65.3233 509.438C64.0393 509.438 62.9773 509.036 62.1373 508.232C61.2973 507.428 60.8773 506.42 60.8773 505.208ZM61.5433 501.266V505.208C61.5433 506.216 61.9033 507.062 62.6233 507.746C63.3673 508.418 64.2673 508.754 65.3233 508.754C66.3793 508.754 67.2733 508.418 68.0053 507.746C68.7253 507.062 69.0853 506.216 69.0853 505.208V501.266C69.0853 500.246 68.7253 499.406 68.0053 498.746C67.2853 498.062 66.3913 497.72 65.3233 497.72C64.2673 497.72 63.3673 498.062 62.6233 498.746C61.9033 499.406 61.5433 500.246 61.5433 501.266ZM72.4438 505.208V501.266C72.4438 500.066 72.8638 499.064 73.7038 498.26C74.5438 497.456 75.6058 497.054 76.8898 497.054C78.1618 497.054 79.2178 497.456 80.0578 498.26C80.9098 499.076 81.3358 500.078 81.3358 501.266V505.208C81.3358 506.408 80.9098 507.416 80.0578 508.232C79.2178 509.036 78.1618 509.438 76.8898 509.438C75.6058 509.438 74.5438 509.036 73.7038 508.232C72.8638 507.428 72.4438 506.42 72.4438 505.208ZM73.1098 501.266V505.208C73.1098 506.216 73.4698 507.062 74.1898 507.746C74.9338 508.418 75.8338 508.754 76.8898 508.754C77.9458 508.754 78.8398 508.418 79.5718 507.746C80.2918 507.062 80.6518 506.216 80.6518 505.208V501.266C80.6518 500.246 80.2918 499.406 79.5718 498.746C78.8518 498.062 77.9578 497.72 76.8898 497.72C75.8338 497.72 74.9338 498.062 74.1898 498.746C73.4698 499.406 73.1098 500.246 73.1098 501.266ZM84.7302 502.49V509.312H84.0642V501.212H84.7302L88.2762 507.458L91.8222 501.212H92.4882V509.312H91.8222V502.526L88.4922 508.376H88.0782L84.7302 502.49ZM95.9802 502.49V509.312H95.3142V501.212H95.9802L99.5262 507.458L103.072 501.212H103.738V509.312H103.072V502.526L99.7422 508.376H99.3282L95.9802 502.49Z" fill="black"/>
<defs>
<clipPath id="clip0">
<rect width="345" height="538" rx="10" fill="white"/>
</clipPath>
</defs>
</svg>
