<svg width="41" height="23" viewBox="0 0 41 23" fill="none" xmlns="http://www.w3.org/2000/svg">
<path d="M0.625 11.7083C0.625 12.8129 1.52043 13.7083 2.625 13.7083H3.04167C4.14624 13.7083 5.04167 12.8129 5.04167 11.7083V11.2916C5.04167 10.1871 4.14624 9.29165 3.04167 9.29165H2.625C1.52043 9.29165 0.625 10.1871 0.625 11.2916V11.7083ZM0.625 20.5416C0.625 21.6462 1.52043 22.5416 2.625 22.5416H3.04167C4.14624 22.5416 5.04167 21.6462 5.04167 20.5416V20.125C5.04167 19.0204 4.14624 18.125 3.04167 18.125H2.625C1.52043 18.125 0.625 19.0204 0.625 20.125V20.5416ZM0.625 2.87498C0.625 3.97955 1.52043 4.87498 2.625 4.87498H3.04167C4.14624 4.87498 5.04167 3.97955 5.04167 2.87498V2.45831C5.04167 1.35374 4.14624 0.458313 3.04167 0.458313H2.625C1.52043 0.458313 0.625 1.35374 0.625 2.45831V2.87498ZM9.45833 11.7083C9.45833 12.8129 10.3538 13.7083 11.4583 13.7083H38.375C39.4796 13.7083 40.375 12.8129 40.375 11.7083V11.2916C40.375 10.1871 39.4796 9.29165 38.375 9.29165H11.4583C10.3538 9.29165 9.45833 10.1871 9.45833 11.2916V11.7083ZM9.45833 20.5416C9.45833 21.6462 10.3538 22.5416 11.4583 22.5416H38.375C39.4796 22.5416 40.375 21.6462 40.375 20.5416V20.125C40.375 19.0204 39.4796 18.125 38.375 18.125H11.4583C10.3538 18.125 9.45833 19.0204 9.45833 20.125V20.5416ZM11.4583 0.458313C10.3538 0.458313 9.45833 1.35374 9.45833 2.45831V2.87498C9.45833 3.97955 10.3538 4.87498 11.4583 4.87498H38.375C39.4796 4.87498 40.375 3.97955 40.375 2.87498V2.45831C40.375 1.35374 39.4796 0.458313 38.375 0.458313H11.4583Z" fill="#505050"/>
</svg>
