<svg width="146" height="15" viewBox="0 0 146 15" fill="none" xmlns="http://www.w3.org/2000/svg">
<path d="M2.44605 9.32596C2.44605 9.32596 4.65105 8.71574 8.53258 7.84659C12.4141 6.97744 17.9722 5.84936 24.7662 4.72563C31.5603 3.60191 39.4138 2.48193 47.8869 1.80557C52.1235 1.4674 56.5366 1.12984 60.9504 0.968861C65.3641 0.807881 70.043 0.736128 74.546 0.840322C76.8415 0.848431 79.1369 0.856532 81.3444 0.952616C83.5519 1.0487 85.936 1.14541 88.0555 1.32947C92.5591 1.61024 96.8868 2.06696 101.126 2.61166C105.366 3.15635 109.43 3.877 113.317 4.59702C115.261 4.95704 117.116 5.40502 118.883 5.7644C119.767 5.9441 120.65 6.12379 121.534 6.30349C122.417 6.48318 123.213 6.75085 124.096 6.93054C127.366 7.73667 130.459 8.71874 133.022 9.52238C135.674 10.4146 137.884 11.217 139.829 11.9302C143.454 13.4438 145.664 14.2462 145.664 14.2462C145.664 14.2462 143.454 13.4438 139.829 12.1067C137.973 11.4822 135.675 10.7678 133.023 9.87553C130.372 9.15987 127.367 8.2664 124.01 7.54825C123.127 7.36855 122.331 7.10088 121.447 6.92118C120.564 6.74149 119.68 6.5618 118.797 6.38211C117.03 6.02272 115.174 5.57473 113.231 5.39129C109.433 4.75987 105.37 4.2158 101.042 3.75908C96.8031 3.39096 92.3875 3.02222 87.9725 2.83005C85.765 2.73396 83.5575 2.63787 81.2621 2.62977C78.9666 2.62166 76.6711 2.61356 74.4642 2.69405C69.9619 2.76643 65.4602 3.01538 60.9585 3.26434C56.5453 3.60189 52.1322 3.93945 47.8963 4.4542C39.5124 5.39573 31.6595 6.69228 25.0426 7.9932C18.4258 9.29412 12.9563 10.5108 9.0754 11.5565C5.28248 12.5143 3.16609 13.2131 3.16609 13.2131C2.19586 13.4745 1.13453 12.9411 0.866241 11.969C0.861251 10.5564 1.47582 9.58739 2.44605 9.32596Z" fill="#E6AE23"/>
</svg>
