<svg xmlns="http://www.w3.org/2000/svg" width="122.579" height="122.523" viewBox="0 0 122.579 122.523">
  <g id="Group_2228" data-name="Group 2228" transform="translate(-2.815 -11.994)">
    <g id="Group_2224" data-name="Group 2224" transform="translate(2.815 11.994)">
      <path id="Path_10049" data-name="Path 10049" d="M64.188,15A58.239,58.239,0,0,1,69.14,131.262a26.924,26.924,0,0,1-4.952.306,56.88,56.88,0,0,1-12.631-1.363A58.287,58.287,0,0,1,64.188,15m0-3A61.391,61.391,0,0,0,2.815,73.228c0,28.433,20.226,53.639,48.075,59.926a62.479,62.479,0,0,0,13.3,1.363,40.16,40.16,0,0,0,5.481-.25c31.1-2.532,55.725-29.323,55.725-61.039A61.3,61.3,0,0,0,64.188,11.994Z" transform="translate(-2.815 -11.994)" fill="#fff"/>
    </g>
    <g id="Group_2225" data-name="Group 2225" transform="translate(41.903 45.991)">
      <path id="Path_10050" data-name="Path 10050" d="M33.126,28.239c.89-1.057,2.7-1.836,5.258-1.836a30.759,30.759,0,0,1,7.957,1.113L48.622,15.3a42.838,42.838,0,0,0-14.439-2.087c-4.98,0-8.875.751-12.046,2.587-3.172,1.725-5.258,3.7-6.454,6.594-1.224,2.587-1.808,6.9-1.808,12.325v4.813H4.22V53.5h9.654V97.43A56.88,56.88,0,0,0,26.5,98.793a26.926,26.926,0,0,0,4.952-.306V53.5h12.8V39.535h-12.8V35.028C31.457,31.578,31.93,29.463,33.126,28.239Z" transform="translate(-4.22 -13.216)" fill="#fff"/>
    </g>
  </g>
</svg>
