<svg width="30" height="30" viewBox="0 0 30 30" fill="none" xmlns="http://www.w3.org/2000/svg">
<circle cx="15" cy="15" r="15" fill="white"/>
<path d="M23.1712 13.3678H22.5V13.3332H15V16.6665H19.7095C19.0225 18.6069 17.1762 19.9998 15 19.9998C12.2387 19.9998 9.99996 17.7611 9.99996 14.9998C9.99996 12.2386 12.2387 9.99984 15 9.99984C16.2745 9.99984 17.4341 10.4807 18.317 11.2661L20.6741 8.909C19.1858 7.52192 17.195 6.6665 15 6.6665C10.3979 6.6665 6.66663 10.3978 6.66663 14.9998C6.66663 19.6019 10.3979 23.3332 15 23.3332C19.602 23.3332 23.3333 19.6019 23.3333 14.9998C23.3333 14.4411 23.2758 13.8957 23.1712 13.3678Z" fill="#FFC107"/>
<path d="M7.62744 11.1211L10.3654 13.129C11.1062 11.2948 12.9004 9.99984 14.9999 9.99984C16.2745 9.99984 17.4341 10.4807 18.317 11.2661L20.6741 8.909C19.1858 7.52192 17.1949 6.6665 14.9999 6.6665C11.7991 6.6665 9.02327 8.47359 7.62744 11.1211Z" fill="#FF3D00"/>
<path d="M14.9999 23.3331C17.1524 23.3331 19.1083 22.5094 20.587 21.1698L18.0078 18.9873C17.1431 19.645 16.0864 20.0007 14.9999 19.9998C12.8324 19.9998 10.992 18.6177 10.2987 16.689L7.58118 18.7827C8.96034 21.4815 11.7612 23.3331 14.9999 23.3331Z" fill="#4CAF50"/>
<path d="M23.1713 13.3681H22.5V13.3335H15V16.6668H19.7096C19.3809 17.5903 18.7889 18.3973 18.0067 18.9881L18.0079 18.9872L20.5871 21.1697C20.4046 21.3356 23.3333 19.1668 23.3333 15.0002C23.3333 14.4414 23.2758 13.896 23.1713 13.3681Z" fill="#1976D2"/>
</svg>
