<svg width="31" height="31" viewBox="0 0 31 31" fill="none" xmlns="http://www.w3.org/2000/svg">
<path d="M25.8463 19.8658C24.2575 19.8658 22.7204 19.6075 21.2867 19.1425C20.8346 18.9875 20.3308 19.1038 19.9821 19.4525L17.9542 21.9971C14.2987 20.2533 10.8758 16.9596 9.05458 13.175L11.5733 11.0308C11.9221 10.6692 12.0254 10.1654 11.8833 9.71333C11.4054 8.27958 11.16 6.7425 11.16 5.15375C11.16 4.45625 10.5788 3.875 9.88125 3.875H5.41208C4.71458 3.875 3.875 4.185 3.875 5.15375C3.875 17.1533 13.8596 27.125 25.8463 27.125C26.7633 27.125 27.125 26.3112 27.125 25.6008V21.1446C27.125 20.4471 26.5437 19.8658 25.8463 19.8658Z" fill="#FF9900"/>
</svg>
