<svg width="32" height="32" viewBox="0 0 32 32" fill="none" xmlns="http://www.w3.org/2000/svg">
<path d="M13.3333 16C11.8667 16 10.6667 17.2 10.6667 18.6667C10.6667 20.1333 11.8667 21.3333 13.3333 21.3333C14.8 21.3333 16 20.1333 16 18.6667C16 17.2 14.8 16 13.3333 16ZM8.00001 10.6667C6.53334 10.6667 5.33334 11.8667 5.33334 13.3333C5.33334 14.8 6.53334 16 8.00001 16C9.46668 16 10.6667 14.8 10.6667 13.3333C10.6667 11.8667 9.46668 10.6667 8.00001 10.6667ZM8.00001 21.3333C6.53334 21.3333 5.33334 22.5333 5.33334 24C5.33334 25.4667 6.53334 26.6667 8.00001 26.6667C9.46668 26.6667 10.6667 25.4667 10.6667 24C10.6667 22.5333 9.46668 21.3333 8.00001 21.3333ZM24 10.6667C25.4667 10.6667 26.6667 9.46668 26.6667 8.00001C26.6667 6.53334 25.4667 5.33334 24 5.33334C22.5333 5.33334 21.3333 6.53334 21.3333 8.00001C21.3333 9.46668 22.5333 10.6667 24 10.6667ZM18.6667 21.3333C17.2 21.3333 16 22.5333 16 24C16 25.4667 17.2 26.6667 18.6667 26.6667C20.1333 26.6667 21.3333 25.4667 21.3333 24C21.3333 22.5333 20.1333 21.3333 18.6667 21.3333ZM24 16C22.5333 16 21.3333 17.2 21.3333 18.6667C21.3333 20.1333 22.5333 21.3333 24 21.3333C25.4667 21.3333 26.6667 20.1333 26.6667 18.6667C26.6667 17.2 25.4667 16 24 16ZM18.6667 10.6667C17.2 10.6667 16 11.8667 16 13.3333C16 14.8 17.2 16 18.6667 16C20.1333 16 21.3333 14.8 21.3333 13.3333C21.3333 11.8667 20.1333 10.6667 18.6667 10.6667ZM13.3333 5.33334C11.8667 5.33334 10.6667 6.53334 10.6667 8.00001C10.6667 9.46668 11.8667 10.6667 13.3333 10.6667C14.8 10.6667 16 9.46668 16 8.00001C16 6.53334 14.8 5.33334 13.3333 5.33334Z" fill="black"/>
</svg>
