<svg width="26" height="26" viewBox="0 0 26 26" fill="none" xmlns="http://www.w3.org/2000/svg">
<path d="M7.58333 5.41667H9.75V3.25H7.58333V5.41667ZM7.58333 14.0833H9.75V11.9167H7.58333V14.0833ZM7.58333 22.75H9.75V20.5833H7.58333V22.75ZM11.9167 18.4167H14.0833V16.25H11.9167V18.4167ZM11.9167 22.75H14.0833V20.5833H11.9167V22.75ZM3.25 22.75H5.41667V20.5833H3.25V22.75ZM3.25 18.4167H5.41667V16.25H3.25V18.4167ZM3.25 14.0833H5.41667V11.9167H3.25V14.0833ZM3.25 9.75H5.41667V7.58333H3.25V9.75ZM3.25 5.41667H5.41667V3.25H3.25V5.41667ZM11.9167 14.0833H14.0833V11.9167H11.9167V14.0833ZM20.5833 18.4167H22.75V16.25H20.5833V18.4167ZM20.5833 14.0833H22.75V11.9167H20.5833V14.0833ZM20.5833 22.75H22.75V20.5833H20.5833V22.75ZM20.5833 9.75H22.75V7.58333H20.5833V9.75ZM11.9167 9.75H14.0833V7.58333H11.9167V9.75ZM20.5833 3.25V5.41667H22.75V3.25H20.5833ZM11.9167 5.41667H14.0833V3.25H11.9167V5.41667ZM16.25 22.75H18.4167V20.5833H16.25V22.75ZM16.25 14.0833H18.4167V11.9167H16.25V14.0833ZM16.25 5.41667H18.4167V3.25H16.25V5.41667Z" fill="black"/>
</svg>
