<svg width="22" height="22" viewBox="0 0 22 22" fill="none" xmlns="http://www.w3.org/2000/svg">
<path d="M20.79 14.9248C19.2867 14.9248 17.8322 14.6913 16.4756 14.271C16.0478 14.1309 15.5711 14.2359 15.2411 14.5512L13.3222 16.8512C9.86333 15.275 6.62444 12.2978 4.90111 8.87695L7.28444 6.93885C7.61444 6.61194 7.71222 6.1566 7.57778 5.74796C7.12556 4.452 6.89333 3.06263 6.89333 1.62656C6.89333 0.996094 6.34333 0.470703 5.68333 0.470703H1.45444C0.794445 0.470703 0 0.750911 0 1.62656C0 12.473 9.44778 21.4863 20.79 21.4863C21.6578 21.4863 22 20.7508 22 20.1086V16.0806C22 15.4502 21.45 14.9248 20.79 14.9248Z" fill="#969696"/>
</svg>
